<mxfile host="65bd71144e">
    <diagram id="IFENaAD3gIpmDv7Gg4IB" name="Page-1">
        <mxGraphModel dx="3761" dy="1630" grid="0" gridSize="10" guides="1" tooltips="1" connect="1" arrows="1" fold="1" page="0" pageScale="1" pageWidth="1654" pageHeight="1169" math="0" shadow="0">
            <root>
                <mxCell id="0"/>
                <mxCell id="1" parent="0"/>
                <mxCell id="391" value="" style="whiteSpace=wrap;html=1;fontSize=18;fillColor=none;" parent="1" vertex="1">
                    <mxGeometry x="911" y="-629" width="758" height="674" as="geometry"/>
                </mxCell>
                <mxCell id="350" value="" style="whiteSpace=wrap;html=1;fontSize=18;fillColor=none;" parent="1" vertex="1">
                    <mxGeometry x="-100" y="-715" width="758" height="817" as="geometry"/>
                </mxCell>
                <mxCell id="245" value="" style="edgeStyle=orthogonalEdgeStyle;html=1;endArrow=open;endFill=0;dashed=1;fontSize=28;exitDx=0;exitDy=0;" parent="1" source="92" target="30" edge="1">
                    <mxGeometry relative="1" as="geometry">
                        <mxPoint x="915" y="2248" as="sourcePoint"/>
                        <mxPoint x="-188.5294117647054" y="2079" as="targetPoint"/>
                        <Array as="points">
                            <mxPoint x="606" y="2227"/>
                            <mxPoint x="606" y="2227"/>
                        </Array>
                    </mxGeometry>
                </mxCell>
                <mxCell id="2" value="&lt;font style=&quot;font-size: 28px ; font-weight: normal&quot;&gt;Is-A&lt;/font&gt;" style="text;strokeColor=none;fillColor=none;html=1;fontSize=24;fontStyle=1;verticalAlign=middle;align=center;dashed=1;dashPattern=1 1;" parent="1" vertex="1">
                    <mxGeometry x="-545.75" y="441" width="214" height="40" as="geometry"/>
                </mxCell>
                <mxCell id="3" value="&lt;font style=&quot;font-size: 28px ; font-weight: normal&quot;&gt;Implements&lt;/font&gt;" style="text;strokeColor=none;fillColor=none;html=1;fontSize=24;fontStyle=1;verticalAlign=middle;align=center;dashed=1;dashPattern=1 1;" parent="1" vertex="1">
                    <mxGeometry x="-545.75" y="504" width="214" height="40" as="geometry"/>
                </mxCell>
                <mxCell id="4" value="&lt;font style=&quot;font-size: 28px ; font-weight: normal&quot;&gt;Has-A&lt;/font&gt;" style="text;strokeColor=none;fillColor=none;html=1;fontSize=24;fontStyle=1;verticalAlign=middle;align=center;dashed=1;dashPattern=1 1;" parent="1" vertex="1">
                    <mxGeometry x="-542.75" y="555" width="214" height="40" as="geometry"/>
                </mxCell>
                <mxCell id="5" value="&lt;font style=&quot;font-size: 28px ; font-weight: normal&quot;&gt;Usage dependency&lt;/font&gt;" style="text;strokeColor=none;fillColor=none;html=1;fontSize=24;fontStyle=1;verticalAlign=middle;align=center;dashed=1;dashPattern=1 1;" parent="1" vertex="1">
                    <mxGeometry x="-561.25" y="606" width="251" height="40" as="geometry"/>
                </mxCell>
                <mxCell id="6" value="&lt;font style=&quot;font-size: 28px ; font-weight: normal&quot;&gt;Aggregation&lt;/font&gt;" style="text;strokeColor=none;fillColor=none;html=1;fontSize=24;fontStyle=1;verticalAlign=middle;align=center;dashed=1;dashPattern=1 1;" parent="1" vertex="1">
                    <mxGeometry x="-561.25" y="679" width="251" height="40" as="geometry"/>
                </mxCell>
                <mxCell id="7" value="&lt;font style=&quot;font-size: 28px ; font-weight: normal&quot;&gt;Composition (subpart of)&lt;/font&gt;" style="text;strokeColor=none;fillColor=none;html=1;fontSize=24;fontStyle=1;verticalAlign=middle;align=center;dashed=1;dashPattern=1 1;" parent="1" vertex="1">
                    <mxGeometry x="-606" y="743" width="334.5" height="40" as="geometry"/>
                </mxCell>
                <mxCell id="8" value="&lt;font style=&quot;font-size: 28px ; font-weight: normal&quot;&gt;Encapsulation&lt;/font&gt;" style="text;strokeColor=none;fillColor=none;html=1;fontSize=24;fontStyle=1;verticalAlign=middle;align=center;dashed=1;dashPattern=1 1;" parent="1" vertex="1">
                    <mxGeometry x="-603" y="805" width="334.5" height="40" as="geometry"/>
                </mxCell>
                <mxCell id="9" value="" style="endArrow=block;html=1;rounded=1;fontSize=28;endFill=0;edgeStyle=orthogonalEdgeStyle;jumpStyle=arc;" parent="1" edge="1">
                    <mxGeometry width="50" height="50" relative="1" as="geometry">
                        <mxPoint x="-262.75" y="460.5799999999999" as="sourcePoint"/>
                        <mxPoint x="-188.75" y="460.5799999999999" as="targetPoint"/>
                    </mxGeometry>
                </mxCell>
                <mxCell id="10" value="" style="endArrow=block;dashed=1;html=1;rounded=1;fontSize=28;endFill=0;edgeStyle=orthogonalEdgeStyle;jumpStyle=arc;" parent="1" edge="1">
                    <mxGeometry width="50" height="50" relative="1" as="geometry">
                        <mxPoint x="-262.75" y="523.5799999999999" as="sourcePoint"/>
                        <mxPoint x="-188.75" y="523.5799999999999" as="targetPoint"/>
                    </mxGeometry>
                </mxCell>
                <mxCell id="11" value="" style="endArrow=open;dashed=1;html=1;rounded=1;fontSize=28;endFill=0;edgeStyle=orthogonalEdgeStyle;jumpStyle=arc;" parent="1" edge="1">
                    <mxGeometry width="50" height="50" relative="1" as="geometry">
                        <mxPoint x="-261.74999999999955" y="625.5799999999999" as="sourcePoint"/>
                        <mxPoint x="-187.75" y="625.5799999999999" as="targetPoint"/>
                    </mxGeometry>
                </mxCell>
                <mxCell id="12" value="" style="endArrow=open;html=1;rounded=1;fontSize=28;endFill=0;edgeStyle=orthogonalEdgeStyle;jumpStyle=arc;" parent="1" edge="1">
                    <mxGeometry width="50" height="50" relative="1" as="geometry">
                        <mxPoint x="-260.75" y="574.5799999999999" as="sourcePoint"/>
                        <mxPoint x="-186.74999999999955" y="574.5799999999999" as="targetPoint"/>
                    </mxGeometry>
                </mxCell>
                <mxCell id="13" value="" style="endArrow=open;html=1;rounded=1;fontSize=28;endFill=0;startArrow=diamond;startFill=0;edgeStyle=orthogonalEdgeStyle;jumpStyle=arc;" parent="1" edge="1">
                    <mxGeometry width="50" height="50" relative="1" as="geometry">
                        <mxPoint x="-261.74999999999955" y="698.5799999999999" as="sourcePoint"/>
                        <mxPoint x="-187.75" y="698.5799999999999" as="targetPoint"/>
                    </mxGeometry>
                </mxCell>
                <mxCell id="14" value="" style="endArrow=open;html=1;rounded=1;fontSize=28;endFill=0;startArrow=diamond;startFill=1;edgeStyle=orthogonalEdgeStyle;jumpStyle=arc;" parent="1" edge="1">
                    <mxGeometry width="50" height="50" relative="1" as="geometry">
                        <mxPoint x="-259.75" y="762.5799999999999" as="sourcePoint"/>
                        <mxPoint x="-185.75" y="762.5799999999999" as="targetPoint"/>
                    </mxGeometry>
                </mxCell>
                <mxCell id="15" value="" style="endArrow=none;html=1;rounded=1;fontSize=28;endFill=0;startArrow=circlePlus;startFill=0;startSize=3;edgeStyle=orthogonalEdgeStyle;jumpStyle=arc;" parent="1" edge="1">
                    <mxGeometry width="50" height="50" relative="1" as="geometry">
                        <mxPoint x="-258.75" y="824.5799999999999" as="sourcePoint"/>
                        <mxPoint x="-184.75" y="824.5799999999999" as="targetPoint"/>
                    </mxGeometry>
                </mxCell>
                <mxCell id="16" value="" style="shape=image;verticalLabelPosition=bottom;labelBackgroundColor=#ffffff;verticalAlign=top;aspect=fixed;imageAspect=0;image=https://media.discordapp.net/attachments/893383594104459304/918099600647258122/access_modifiers_in_class_diagrams.png;" parent="1" vertex="1">
                    <mxGeometry x="-536.75" y="912" width="350" height="204" as="geometry"/>
                </mxCell>
                <mxCell id="17" value="Collisions" style="swimlane;fontStyle=1;align=center;verticalAlign=top;childLayout=stackLayout;horizontal=1;startSize=26;horizontalStack=0;resizeParent=1;resizeParentMax=0;resizeLast=0;collapsible=1;marginBottom=0;" parent="1" vertex="1">
                    <mxGeometry x="1151" y="2605" width="160" height="131" as="geometry"/>
                </mxCell>
                <mxCell id="18" value="- arrOut: Array&lt;Entity&gt;" style="text;strokeColor=none;fillColor=none;align=left;verticalAlign=top;spacingLeft=4;spacingRight=4;overflow=hidden;rotatable=0;points=[[0,0.5],[1,0.5]];portConstraint=eastwest;" parent="17" vertex="1">
                    <mxGeometry y="26" width="160" height="37" as="geometry"/>
                </mxCell>
                <mxCell id="19" value="" style="line;strokeWidth=1;fillColor=none;align=left;verticalAlign=middle;spacingTop=-1;spacingLeft=3;spacingRight=3;rotatable=0;labelPosition=right;points=[];portConstraint=eastwest;" parent="17" vertex="1">
                    <mxGeometry y="63" width="160" height="8" as="geometry"/>
                </mxCell>
                <mxCell id="20" value="+ move(Entity, float, float): void&#10;+ moveDelta(Entity, float, float, boolean x): void &#10;+ solid(int, int): boolean" style="text;strokeColor=none;fillColor=none;align=left;verticalAlign=top;spacingLeft=4;spacingRight=4;overflow=hidden;rotatable=0;points=[[0,0.5],[1,0.5]];portConstraint=eastwest;" parent="17" vertex="1">
                    <mxGeometry y="71" width="160" height="60" as="geometry"/>
                </mxCell>
                <mxCell id="21" value="Classname" style="swimlane;fontStyle=1;align=center;verticalAlign=top;childLayout=stackLayout;horizontal=1;startSize=26;horizontalStack=0;resizeParent=1;resizeParentMax=0;resizeLast=0;collapsible=1;marginBottom=0;" parent="1" vertex="1">
                    <mxGeometry x="-500" y="308" width="160" height="86" as="geometry"/>
                </mxCell>
                <mxCell id="22" value="+ field: type" style="text;strokeColor=none;fillColor=none;align=left;verticalAlign=top;spacingLeft=4;spacingRight=4;overflow=hidden;rotatable=0;points=[[0,0.5],[1,0.5]];portConstraint=eastwest;" parent="21" vertex="1">
                    <mxGeometry y="26" width="160" height="26" as="geometry"/>
                </mxCell>
                <mxCell id="23" value="" style="line;strokeWidth=1;fillColor=none;align=left;verticalAlign=middle;spacingTop=-1;spacingLeft=3;spacingRight=3;rotatable=0;labelPosition=right;points=[];portConstraint=eastwest;" parent="21" vertex="1">
                    <mxGeometry y="52" width="160" height="8" as="geometry"/>
                </mxCell>
                <mxCell id="24" value="+ method(type): type" style="text;strokeColor=none;fillColor=none;align=left;verticalAlign=top;spacingLeft=4;spacingRight=4;overflow=hidden;rotatable=0;points=[[0,0.5],[1,0.5]];portConstraint=eastwest;" parent="21" vertex="1">
                    <mxGeometry y="60" width="160" height="26" as="geometry"/>
                </mxCell>
                <mxCell id="241" style="edgeStyle=orthogonalEdgeStyle;html=1;endArrow=open;endFill=0;dashed=1;fontSize=28;startArrow=none;" parent="1" source="92" target="47" edge="1">
                    <mxGeometry relative="1" as="geometry">
                        <Array as="points">
                            <mxPoint x="919" y="2260"/>
                            <mxPoint x="919" y="2260"/>
                        </Array>
                    </mxGeometry>
                </mxCell>
                <mxCell id="257" style="edgeStyle=orthogonalEdgeStyle;jumpStyle=arc;html=1;exitDx=0;exitDy=0;startArrow=none;startFill=0;endArrow=open;endFill=0;dashed=1;" parent="1" source="30" target="34" edge="1">
                    <mxGeometry relative="1" as="geometry">
                        <Array as="points">
                            <mxPoint x="126" y="2479"/>
                            <mxPoint x="126" y="2479"/>
                        </Array>
                    </mxGeometry>
                </mxCell>
                <mxCell id="261" style="edgeStyle=orthogonalEdgeStyle;html=1;fontSize=28;endFill=0;endArrow=open;startFill=1;startArrow=diamond;" parent="1" source="30" target="131" edge="1">
                    <mxGeometry relative="1" as="geometry">
                        <Array as="points">
                            <mxPoint x="229" y="2172"/>
                            <mxPoint x="229" y="2172"/>
                        </Array>
                    </mxGeometry>
                </mxCell>
                <mxCell id="30" value="Effect" style="swimlane;fontStyle=1;align=center;verticalAlign=top;childLayout=stackLayout;horizontal=1;startSize=26;horizontalStack=0;resizeParent=1;resizeParentMax=0;resizeLast=0;collapsible=1;marginBottom=0;" parent="1" vertex="1">
                    <mxGeometry x="49" y="2196" width="305" height="210" as="geometry">
                        <mxRectangle x="890" y="583" width="60" height="26" as="alternateBounds"/>
                    </mxGeometry>
                </mxCell>
                <mxCell id="31" value="+ id: int &#10;+ renderer: Cons&lt;EffectContainer&gt; &#10;+ lifetime: float &#10;+ size: float &#10;+ ground: boolean &#10;+ groundDuration: float " style="text;strokeColor=none;fillColor=none;align=left;verticalAlign=top;spacingLeft=4;spacingRight=4;overflow=hidden;rotatable=0;points=[[0,0.5],[1,0.5]];portConstraint=eastwest;" parent="30" vertex="1">
                    <mxGeometry y="26" width="305" height="105" as="geometry"/>
                </mxCell>
                <mxCell id="32" value="" style="line;strokeWidth=1;fillColor=none;align=left;verticalAlign=middle;spacingTop=-1;spacingLeft=3;spacingRight=3;rotatable=0;labelPosition=right;points=[];portConstraint=eastwest;" parent="30" vertex="1">
                    <mxGeometry y="131" width="305" height="8" as="geometry"/>
                </mxCell>
                <mxCell id="33" value="+ ground(float): Effect&#10;+ at([Multiple overloads]): void&#10;+ render(int, color, float, float, float, float, Object): void&#10;+ create(float, float float, Color, Object): void" style="text;strokeColor=none;fillColor=none;align=left;verticalAlign=top;spacingLeft=4;spacingRight=4;overflow=hidden;rotatable=0;points=[[0,0.5],[1,0.5]];portConstraint=eastwest;" parent="30" vertex="1">
                    <mxGeometry y="139" width="305" height="71" as="geometry"/>
                </mxCell>
                <mxCell id="156" style="edgeStyle=orthogonalEdgeStyle;html=1;dashed=1;fontSize=28;endFill=0;endArrow=open;" parent="1" source="34" target="30" edge="1">
                    <mxGeometry relative="1" as="geometry">
                        <mxPoint x="-331" y="2188" as="targetPoint"/>
                        <Array as="points">
                            <mxPoint x="155" y="2478"/>
                            <mxPoint x="155" y="2478"/>
                        </Array>
                    </mxGeometry>
                </mxCell>
                <mxCell id="242" style="edgeStyle=orthogonalEdgeStyle;html=1;endArrow=block;endFill=0;fontSize=28;fillColor=#1ba1e2;strokeColor=#006EAF;" parent="1" source="34" target="72" edge="1">
                    <mxGeometry relative="1" as="geometry">
                        <mxPoint x="940.8333333333335" y="2983" as="targetPoint"/>
                        <Array as="points">
                            <mxPoint x="113" y="2635"/>
                            <mxPoint x="113" y="2635"/>
                        </Array>
                    </mxGeometry>
                </mxCell>
                <mxCell id="255" style="edgeStyle=orthogonalEdgeStyle;jumpStyle=arc;html=1;exitDx=0;exitDy=0;entryDx=0;entryDy=0;startArrow=diamond;startFill=1;endArrow=open;endFill=0;" parent="1" source="34" target="30" edge="1">
                    <mxGeometry relative="1" as="geometry">
                        <Array as="points">
                            <mxPoint x="96" y="2479"/>
                            <mxPoint x="96" y="2479"/>
                        </Array>
                    </mxGeometry>
                </mxCell>
                <mxCell id="34" value="EffectEntity" style="swimlane;fontStyle=1;align=center;verticalAlign=top;childLayout=stackLayout;horizontal=1;startSize=26;horizontalStack=0;resizeParent=1;resizeParentMax=0;resizeLast=0;collapsible=1;marginBottom=0;" parent="1" vertex="1">
                    <mxGeometry x="54" y="2486" width="160" height="130" as="geometry"/>
                </mxCell>
                <mxCell id="35" value="+ effect: Effect&#10;+ rotation: float&#10;+ color: Color&#10;+ data: Object" style="text;strokeColor=none;fillColor=none;align=left;verticalAlign=top;spacingLeft=4;spacingRight=4;overflow=hidden;rotatable=0;points=[[0,0.5],[1,0.5]];portConstraint=eastwest;" parent="34" vertex="1">
                    <mxGeometry y="26" width="160" height="70" as="geometry"/>
                </mxCell>
                <mxCell id="36" value="" style="line;strokeWidth=1;fillColor=none;align=left;verticalAlign=middle;spacingTop=-1;spacingLeft=3;spacingRight=3;rotatable=0;labelPosition=right;points=[];portConstraint=eastwest;" parent="34" vertex="1">
                    <mxGeometry y="96" width="160" height="8" as="geometry"/>
                </mxCell>
                <mxCell id="37" value="+ draw(): void" style="text;strokeColor=none;fillColor=none;align=left;verticalAlign=top;spacingLeft=4;spacingRight=4;overflow=hidden;rotatable=0;points=[[0,0.5],[1,0.5]];portConstraint=eastwest;" parent="34" vertex="1">
                    <mxGeometry y="104" width="160" height="26" as="geometry"/>
                </mxCell>
                <mxCell id="130" style="edgeStyle=orthogonalEdgeStyle;html=1;exitDx=0;exitDy=0;entryDx=0;entryDy=0;endArrow=none;endFill=0;startArrow=circlePlus;startFill=0;startSize=3;fillColor=#e3c800;strokeColor=#B09500;" parent="1" source="38" target="126" edge="1">
                    <mxGeometry relative="1" as="geometry">
                        <Array as="points">
                            <mxPoint x="1038" y="2793"/>
                        </Array>
                    </mxGeometry>
                </mxCell>
                <mxCell id="172" style="edgeStyle=orthogonalEdgeStyle;html=1;entryDx=0;entryDy=0;endArrow=block;endFill=0;fillColor=#1ba1e2;strokeColor=#006EAF;" parent="1" source="38" target="47" edge="1">
                    <mxGeometry relative="1" as="geometry">
                        <Array as="points">
                            <mxPoint x="921" y="2812"/>
                        </Array>
                    </mxGeometry>
                </mxCell>
                <mxCell id="228" style="edgeStyle=orthogonalEdgeStyle;html=1;endArrow=open;endFill=0;dashed=1;fontSize=28;" parent="1" source="38" target="30" edge="1">
                    <mxGeometry relative="1" as="geometry">
                        <Array as="points">
                            <mxPoint x="1454" y="3032"/>
                            <mxPoint x="257" y="3032"/>
                        </Array>
                    </mxGeometry>
                </mxCell>
                <mxCell id="229" style="edgeStyle=orthogonalEdgeStyle;html=1;entryDx=0;entryDy=0;endArrow=open;endFill=0;dashed=1;fontSize=28;entryPerimeter=0;jumpStyle=arc;" parent="1" source="38" target="52" edge="1">
                    <mxGeometry relative="1" as="geometry">
                        <Array as="points">
                            <mxPoint x="1637" y="2810"/>
                            <mxPoint x="1637" y="1929"/>
                        </Array>
                    </mxGeometry>
                </mxCell>
                <mxCell id="248" style="edgeStyle=orthogonalEdgeStyle;html=1;exitDx=0;exitDy=0;entryDx=0;entryDy=0;dashed=1;endArrow=open;endFill=0;" parent="1" source="38" target="126" edge="1">
                    <mxGeometry relative="1" as="geometry">
                        <Array as="points">
                            <mxPoint x="1056" y="2779"/>
                        </Array>
                    </mxGeometry>
                </mxCell>
                <mxCell id="278" style="edgeStyle=orthogonalEdgeStyle;jumpStyle=arc;html=1;dashed=1;fontSize=28;endFill=0;endArrow=open;" parent="1" source="38" target="271" edge="1">
                    <mxGeometry relative="1" as="geometry">
                        <Array as="points">
                            <mxPoint x="393" y="3015"/>
                        </Array>
                    </mxGeometry>
                </mxCell>
                <mxCell id="38" value="Enemy" style="swimlane;fontStyle=1;align=center;verticalAlign=top;childLayout=stackLayout;horizontal=1;startSize=26;horizontalStack=0;resizeParent=1;resizeParentMax=0;resizeLast=0;collapsible=1;marginBottom=0;" parent="1" vertex="1">
                    <mxGeometry x="1354" y="2766" width="158" height="275" as="geometry"/>
                </mxCell>
                <mxCell id="39" value="+ count: int&#10;+ health: float&#10;+ hitTime: float&#10;+ size: float&#10;+ hitColor: Color" style="text;strokeColor=none;fillColor=none;align=left;verticalAlign=top;spacingLeft=4;spacingRight=4;overflow=hidden;rotatable=0;points=[[0,0.5],[1,0.5]];portConstraint=eastwest;" parent="38" vertex="1">
                    <mxGeometry y="26" width="158" height="82" as="geometry"/>
                </mxCell>
                <mxCell id="40" value="" style="line;strokeWidth=1;fillColor=none;align=left;verticalAlign=middle;spacingTop=-1;spacingLeft=3;spacingRight=3;rotatable=0;labelPosition=right;points=[];portConstraint=eastwest;" parent="38" vertex="1">
                    <mxGeometry y="108" width="158" height="8" as="geometry"/>
                </mxCell>
                <mxCell id="41" value="+ damage(float): void&#10;+ hitbox(Rect): void&#10;+ drops(): Array&lt;Drop&gt;&#10;+ clicked(): void&#10;+ update(): void&#10;+ killed(): void&#10;+ hitEffect(): Effect&#10;+ deathEffect(): Effect" style="text;strokeColor=none;fillColor=none;align=left;verticalAlign=top;spacingLeft=4;spacingRight=4;overflow=hidden;rotatable=0;points=[[0,0.5],[1,0.5]];portConstraint=eastwest;" parent="38" vertex="1">
                    <mxGeometry y="116" width="158" height="159" as="geometry"/>
                </mxCell>
                <mxCell id="231" style="edgeStyle=orthogonalEdgeStyle;html=1;endArrow=openThin;endFill=0;jumpStyle=arc;fillColor=#fad9d5;strokeColor=#ae4132;startArrow=none;" parent="1" source="96" target="47" edge="1">
                    <mxGeometry relative="1" as="geometry">
                        <Array as="points">
                            <mxPoint x="701" y="2569"/>
                            <mxPoint x="701" y="2569"/>
                        </Array>
                    </mxGeometry>
                </mxCell>
                <mxCell id="233" style="edgeStyle=orthogonalEdgeStyle;html=1;endArrow=open;endFill=0;dashed=1;fontSize=28;" parent="1" source="42" target="30" edge="1">
                    <mxGeometry relative="1" as="geometry">
                        <Array as="points">
                            <mxPoint x="280" y="2374"/>
                            <mxPoint x="280" y="2374"/>
                        </Array>
                    </mxGeometry>
                </mxCell>
                <mxCell id="234" style="edgeStyle=orthogonalEdgeStyle;html=1;endArrow=open;endFill=0;dashed=1;fontSize=28;" parent="1" source="42" target="52" edge="1">
                    <mxGeometry relative="1" as="geometry">
                        <Array as="points">
                            <mxPoint x="564" y="2231"/>
                            <mxPoint x="564" y="2231"/>
                        </Array>
                    </mxGeometry>
                </mxCell>
                <mxCell id="276" style="edgeStyle=orthogonalEdgeStyle;html=1;dashed=1;fontSize=28;endFill=0;endArrow=open;jumpStyle=arc;" parent="1" source="42" target="271" edge="1">
                    <mxGeometry relative="1" as="geometry">
                        <Array as="points">
                            <mxPoint x="448" y="2130"/>
                            <mxPoint x="448" y="2130"/>
                        </Array>
                    </mxGeometry>
                </mxCell>
                <mxCell id="42" value="Fire" style="swimlane;fontStyle=1;align=center;verticalAlign=top;childLayout=stackLayout;horizontal=1;startSize=26;horizontalStack=0;resizeParent=1;resizeParentMax=0;resizeLast=0;collapsible=1;marginBottom=0;" parent="1" vertex="1">
                    <mxGeometry x="429" y="2300" width="167" height="129" as="geometry"/>
                </mxCell>
                <mxCell id="43" value="+ heat: float&#10;+ smoothHeat: float" style="text;strokeColor=none;fillColor=none;align=left;verticalAlign=top;spacingLeft=4;spacingRight=4;overflow=hidden;rotatable=0;points=[[0,0.5],[1,0.5]];portConstraint=eastwest;" parent="42" vertex="1">
                    <mxGeometry y="26" width="167" height="40" as="geometry"/>
                </mxCell>
                <mxCell id="44" value="" style="line;strokeWidth=1;fillColor=none;align=left;verticalAlign=middle;spacingTop=-1;spacingLeft=3;spacingRight=3;rotatable=0;labelPosition=right;points=[];portConstraint=eastwest;" parent="42" vertex="1">
                    <mxGeometry y="66" width="167" height="7" as="geometry"/>
                </mxCell>
                <mxCell id="45" value="+ clicked(): void&#10;+ update(): void&#10;+ draw(): void" style="text;strokeColor=none;fillColor=none;align=left;verticalAlign=top;spacingLeft=4;spacingRight=4;overflow=hidden;rotatable=0;points=[[0,0.5],[1,0.5]];portConstraint=eastwest;" parent="42" vertex="1">
                    <mxGeometry y="73" width="167" height="56" as="geometry"/>
                </mxCell>
                <mxCell id="47" value="Entity" style="swimlane;fontStyle=1;align=center;verticalAlign=top;childLayout=stackLayout;horizontal=1;startSize=26;horizontalStack=0;resizeParent=1;resizeParentMax=0;resizeLast=0;collapsible=1;marginBottom=0;" parent="1" vertex="1">
                    <mxGeometry x="761" y="2285" width="171" height="397" as="geometry"/>
                </mxCell>
                <mxCell id="48" value="+ id: int&#10;+ x, y, telecharge: float&#10;+ added: boolean" style="text;strokeColor=none;fillColor=none;align=left;verticalAlign=top;spacingLeft=4;spacingRight=4;overflow=hidden;rotatable=0;points=[[0,0.5],[1,0.5]];portConstraint=eastwest;" parent="47" vertex="1">
                    <mxGeometry y="26" width="171" height="57" as="geometry"/>
                </mxCell>
                <mxCell id="49" value="" style="line;strokeWidth=1;fillColor=none;align=left;verticalAlign=middle;spacingTop=-1;spacingLeft=3;spacingRight=3;rotatable=0;labelPosition=right;points=[];portConstraint=eastwest;" parent="47" vertex="1">
                    <mxGeometry y="83" width="171" height="8" as="geometry"/>
                </mxCell>
                <mxCell id="50" value="+ tile(): Tile&#10;+ solid(): boolean&#10;+ height(): float&#10;+ canTeleport(): boolean&#10;+ move(): void&#10;+ interactX(): float&#10;+ interactY(): float&#10;+ clipSize(): float&#10;+ top(): Position&#10;+ move(float x, float y)(): void&#10;+ hitbox(Rect rect)(): void&#10;+ tileHit(Rect rect)(): Rect&#10;+ update(): void&#10;+ draw(): void&#10;+ drawShadow(): void&#10;+ updateTeleport(): void&#10;+ clicked(): void&#10;+ clickable(): boolean&#10;+ add(): void&#10;+ remove(): void&#10;+ set(): void" style="text;strokeColor=none;fillColor=none;align=left;verticalAlign=top;spacingLeft=4;spacingRight=4;overflow=hidden;rotatable=0;points=[[0,0.5],[1,0.5]];portConstraint=eastwest;" parent="47" vertex="1">
                    <mxGeometry y="91" width="171" height="306" as="geometry"/>
                </mxCell>
                <mxCell id="243" style="edgeStyle=orthogonalEdgeStyle;html=1;endArrow=open;endFill=0;dashed=1;fontSize=28;" parent="1" source="52" target="30" edge="1">
                    <mxGeometry relative="1" as="geometry">
                        <Array as="points">
                            <mxPoint x="516" y="2090"/>
                            <mxPoint x="516" y="2213"/>
                        </Array>
                    </mxGeometry>
                </mxCell>
                <mxCell id="244" style="edgeStyle=orthogonalEdgeStyle;html=1;entryDx=0;entryDy=0;endArrow=open;endFill=0;entryPerimeter=0;fontSize=28;startFill=1;startArrow=diamond;fillColor=#60a917;strokeColor=#2D7600;" parent="1" source="52" target="30" edge="1">
                    <mxGeometry relative="1" as="geometry">
                        <Array as="points">
                            <mxPoint x="495" y="2067"/>
                            <mxPoint x="495" y="2199"/>
                        </Array>
                    </mxGeometry>
                </mxCell>
                <mxCell id="279" style="edgeStyle=orthogonalEdgeStyle;jumpStyle=arc;html=1;endArrow=open;endFill=0;dashed=1;" parent="1" source="52" target="271" edge="1">
                    <mxGeometry relative="1" as="geometry">
                        <Array as="points">
                            <mxPoint x="489" y="2005"/>
                        </Array>
                    </mxGeometry>
                </mxCell>
                <mxCell id="52" value="Fx" style="swimlane;fontStyle=1;align=center;verticalAlign=top;childLayout=stackLayout;horizontal=1;startSize=26;horizontalStack=0;resizeParent=1;resizeParentMax=0;resizeLast=0;collapsible=1;marginBottom=0;" parent="1" vertex="1">
                    <mxGeometry x="551" y="1896" width="204" height="277" as="geometry"/>
                </mxCell>
                <mxCell id="53" value="+ fireballs: Effect&#10;~ hairBurn: Effect&#10;~ unlok: Effect&#10;~ fire: Effect&#10;~ snowAttack: Effect&#10;~ spark: Effect&#10;~ teleported: Effect&#10;~ track: Effect&#10;~ breath: Effect&#10;~ pickup: Effect&#10;~ itemMove: Effect&#10;~ itemThrow: Effect&#10;~ chargeShot: Effect&#10;~ hitSnow: Effect&#10;~ chop: Effect&#10;~ mine: Effect&#10;~ deathsnow: Effect" style="text;strokeColor=none;fillColor=none;align=left;verticalAlign=top;spacingLeft=4;spacingRight=4;overflow=hidden;rotatable=0;points=[[0,0.5],[1,0.5]];portConstraint=eastwest;" parent="52" vertex="1">
                    <mxGeometry y="26" width="204" height="251" as="geometry"/>
                </mxCell>
                <mxCell id="175" style="edgeStyle=orthogonalEdgeStyle;html=1;entryDx=0;entryDy=0;endArrow=block;endFill=0;fillColor=#1ba1e2;strokeColor=#006EAF;" parent="1" source="68" target="76" edge="1">
                    <mxGeometry relative="1" as="geometry">
                        <Array as="points">
                            <mxPoint x="860" y="2815"/>
                            <mxPoint x="841" y="2815"/>
                        </Array>
                    </mxGeometry>
                </mxCell>
                <mxCell id="72" value="TimedEntity" style="swimlane;fontStyle=3;align=center;verticalAlign=top;childLayout=stackLayout;horizontal=1;startSize=26;horizontalStack=0;resizeParent=1;resizeParentMax=0;resizeLast=0;collapsible=1;marginBottom=0;" parent="1" vertex="1">
                    <mxGeometry x="56" y="2640" width="160" height="105" as="geometry"/>
                </mxCell>
                <mxCell id="73" value="+ lifetime, time: float" style="text;strokeColor=none;fillColor=none;align=left;verticalAlign=top;spacingLeft=4;spacingRight=4;overflow=hidden;rotatable=0;points=[[0,0.5],[1,0.5]];portConstraint=eastwest;" parent="72" vertex="1">
                    <mxGeometry y="26" width="160" height="26" as="geometry"/>
                </mxCell>
                <mxCell id="74" value="" style="line;strokeWidth=1;fillColor=none;align=left;verticalAlign=middle;spacingTop=-1;spacingLeft=3;spacingRight=3;rotatable=0;labelPosition=right;points=[];portConstraint=eastwest;" parent="72" vertex="1">
                    <mxGeometry y="52" width="160" height="8" as="geometry"/>
                </mxCell>
                <mxCell id="75" value="+ update(): void&#10;+ fin(): float" style="text;strokeColor=none;fillColor=none;align=left;verticalAlign=top;spacingLeft=4;spacingRight=4;overflow=hidden;rotatable=0;points=[[0,0.5],[1,0.5]];portConstraint=eastwest;" parent="72" vertex="1">
                    <mxGeometry y="60" width="160" height="45" as="geometry"/>
                </mxCell>
                <mxCell id="190" style="edgeStyle=orthogonalEdgeStyle;jumpStyle=arc;html=1;entryDx=0;entryDy=0;endArrow=block;endFill=0;entryPerimeter=0;fillColor=#1ba1e2;strokeColor=#006EAF;" parent="1" source="76" target="47" edge="1">
                    <mxGeometry relative="1" as="geometry"/>
                </mxCell>
                <mxCell id="76" value="TileEntity" style="swimlane;fontStyle=1;align=center;verticalAlign=top;childLayout=stackLayout;horizontal=1;startSize=26;horizontalStack=0;resizeParent=1;resizeParentMax=0;resizeLast=0;collapsible=1;marginBottom=0;" parent="1" vertex="1">
                    <mxGeometry x="804" y="2712" width="85" height="78" as="geometry"/>
                </mxCell>
                <mxCell id="77" value="+ tile: Tile" style="text;strokeColor=none;fillColor=none;align=left;verticalAlign=top;spacingLeft=4;spacingRight=4;overflow=hidden;rotatable=0;points=[[0,0.5],[1,0.5]];portConstraint=eastwest;" parent="76" vertex="1">
                    <mxGeometry y="26" width="85" height="26" as="geometry"/>
                </mxCell>
                <mxCell id="270" value="+ tile: Tile" style="text;strokeColor=none;fillColor=none;align=left;verticalAlign=top;spacingLeft=4;spacingRight=4;overflow=hidden;rotatable=0;points=[[0,0.5],[1,0.5]];portConstraint=eastwest;" parent="76" vertex="1">
                    <mxGeometry y="52" width="85" height="26" as="geometry"/>
                </mxCell>
                <mxCell id="218" style="edgeStyle=orthogonalEdgeStyle;html=1;entryDx=0;entryDy=0;endArrow=block;endFill=0;fillColor=#1ba1e2;strokeColor=#006EAF;" parent="1" source="80" target="84" edge="1">
                    <mxGeometry relative="1" as="geometry">
                        <Array as="points">
                            <mxPoint x="1204" y="2502"/>
                            <mxPoint x="1433" y="2502"/>
                        </Array>
                    </mxGeometry>
                </mxCell>
                <mxCell id="246" style="endArrow=open;dashed=1;html=1;rounded=1;fontSize=28;endFill=0;edgeStyle=orthogonalEdgeStyle;jumpStyle=arc;entryDx=0;entryDy=0;exitDx=0;exitDy=0;" parent="1" source="88" target="126" edge="1">
                    <mxGeometry width="50" height="50" relative="1" as="geometry">
                        <mxPoint x="1610" y="2363" as="sourcePoint"/>
                        <mxPoint x="1048" y="2377" as="targetPoint"/>
                        <Array as="points">
                            <mxPoint x="1367" y="2268"/>
                            <mxPoint x="1062" y="2268"/>
                        </Array>
                    </mxGeometry>
                </mxCell>
                <mxCell id="249" style="edgeStyle=orthogonalEdgeStyle;html=1;fontSize=28;endFill=0;endArrow=open;startFill=1;startArrow=diamond;fillColor=#60a917;strokeColor=#2D7600;" parent="1" source="80" target="126" edge="1">
                    <mxGeometry relative="1" as="geometry">
                        <Array as="points">
                            <mxPoint x="1240" y="2289"/>
                            <mxPoint x="1091" y="2289"/>
                        </Array>
                    </mxGeometry>
                </mxCell>
                <mxCell id="80" value="SnowTitan" style="swimlane;fontStyle=1;align=center;verticalAlign=top;childLayout=stackLayout;horizontal=1;startSize=26;horizontalStack=0;resizeParent=1;resizeParentMax=0;resizeLast=0;collapsible=1;marginBottom=0;" parent="1" vertex="1">
                    <mxGeometry x="1129" y="2386" width="150" height="71" as="geometry"/>
                </mxCell>
                <mxCell id="83" value="+ drops(): Array&lt;Drop&gt;&#10;+ draw(): void" style="text;strokeColor=none;fillColor=none;align=left;verticalAlign=top;spacingLeft=4;spacingRight=4;overflow=hidden;rotatable=0;points=[[0,0.5],[1,0.5]];portConstraint=eastwest;" parent="80" vertex="1">
                    <mxGeometry y="26" width="150" height="45" as="geometry"/>
                </mxCell>
                <mxCell id="247" value="" style="endArrow=open;dashed=1;html=1;rounded=1;fontSize=28;endFill=0;edgeStyle=orthogonalEdgeStyle;jumpStyle=none;entryDx=0;entryDy=0;exitDx=0;exitDy=0;" parent="1" source="80" target="126" edge="1">
                    <mxGeometry width="50" height="50" relative="1" as="geometry">
                        <mxPoint x="1620" y="2373" as="sourcePoint"/>
                        <mxPoint x="1058" y="2387" as="targetPoint"/>
                        <Array as="points">
                            <mxPoint x="1204" y="2277"/>
                            <mxPoint x="1071" y="2277"/>
                        </Array>
                    </mxGeometry>
                </mxCell>
                <mxCell id="208" style="edgeStyle=orthogonalEdgeStyle;html=1;entryDx=0;entryDy=0;entryPerimeter=0;dashed=1;fontSize=28;endFill=0;endArrow=open;jumpStyle=arc;" parent="1" source="68" target="38" edge="1">
                    <mxGeometry relative="1" as="geometry">
                        <Array as="points">
                            <mxPoint x="1103" y="2879"/>
                            <mxPoint x="1103" y="2879"/>
                        </Array>
                    </mxGeometry>
                </mxCell>
                <mxCell id="217" style="edgeStyle=orthogonalEdgeStyle;html=1;entryDx=0;entryDy=0;endArrow=block;endFill=0;fillColor=#1ba1e2;strokeColor=#006EAF;" parent="1" source="88" target="84" edge="1">
                    <mxGeometry relative="1" as="geometry">
                        <Array as="points">
                            <mxPoint x="1367" y="2502"/>
                            <mxPoint x="1433" y="2502"/>
                        </Array>
                    </mxGeometry>
                </mxCell>
                <mxCell id="250" style="edgeStyle=orthogonalEdgeStyle;html=1;fontSize=28;endFill=0;endArrow=open;startFill=1;startArrow=diamond;fillColor=#60a917;strokeColor=#2D7600;" parent="1" source="88" target="126" edge="1">
                    <mxGeometry relative="1" as="geometry">
                        <Array as="points">
                            <mxPoint x="1401" y="2289"/>
                            <mxPoint x="1091" y="2289"/>
                        </Array>
                    </mxGeometry>
                </mxCell>
                <mxCell id="88" value="SnowArchdemon" style="swimlane;fontStyle=1;align=center;verticalAlign=top;childLayout=stackLayout;horizontal=1;startSize=26;horizontalStack=0;resizeParent=1;resizeParentMax=0;resizeLast=0;collapsible=1;marginBottom=0;" parent="1" vertex="1">
                    <mxGeometry x="1299" y="2378" width="135" height="94" as="geometry"/>
                </mxCell>
                <mxCell id="91" value="+ damage(): float&#10;+ speed(): float&#10;+ drops(): Array&lt;Drop&gt;&#10;+ draw(): void" style="text;strokeColor=none;fillColor=none;align=left;verticalAlign=top;spacingLeft=4;spacingRight=4;overflow=hidden;rotatable=0;points=[[0,0.5],[1,0.5]];portConstraint=eastwest;" parent="88" vertex="1">
                    <mxGeometry y="26" width="135" height="68" as="geometry"/>
                </mxCell>
                <mxCell id="237" style="edgeStyle=orthogonalEdgeStyle;html=1;endArrow=block;endFill=0;fontSize=28;jumpStyle=arc;fillColor=#1ba1e2;strokeColor=#006EAF;" parent="1" source="96" target="47" edge="1">
                    <mxGeometry relative="1" as="geometry">
                        <Array as="points">
                            <mxPoint x="748" y="2551"/>
                            <mxPoint x="748" y="2551"/>
                        </Array>
                    </mxGeometry>
                </mxCell>
                <mxCell id="104" value="" style="endArrow=open;html=1;rounded=1;fontSize=28;endFill=0;edgeStyle=orthogonalEdgeStyle;jumpStyle=arc;exitDx=0;exitDy=0;entryDx=0;entryDy=0;entryPerimeter=0;startFill=0;startArrow=diamond;fillColor=#60a917;strokeColor=#2D7600;" parent="1" source="17" target="47" edge="1">
                    <mxGeometry width="50" height="50" relative="1" as="geometry">
                        <mxPoint x="-704.75" y="2162.64" as="sourcePoint"/>
                        <mxPoint x="-630.7499999999995" y="2162.64" as="targetPoint"/>
                        <Array as="points">
                            <mxPoint x="1205" y="2648"/>
                        </Array>
                    </mxGeometry>
                </mxCell>
                <mxCell id="251" style="edgeStyle=orthogonalEdgeStyle;html=1;fontSize=28;endFill=0;endArrow=open;startFill=1;startArrow=diamond;fillColor=#60a917;strokeColor=#2D7600;" parent="1" source="107" target="126" edge="1">
                    <mxGeometry relative="1" as="geometry">
                        <Array as="points">
                            <mxPoint x="1558" y="2289"/>
                            <mxPoint x="1091" y="2289"/>
                        </Array>
                    </mxGeometry>
                </mxCell>
                <mxCell id="107" value="Crystal" style="swimlane;fontStyle=1;align=center;verticalAlign=top;childLayout=stackLayout;horizontal=1;startSize=26;horizontalStack=0;resizeParent=1;resizeParentMax=0;resizeLast=0;collapsible=1;marginBottom=0;" parent="1" vertex="1">
                    <mxGeometry x="1447" y="2374" width="140" height="85" as="geometry"/>
                </mxCell>
                <mxCell id="110" value="+ speed(): float&#10;+ drops(): Array&lt;Drop&gt;&#10;+ draw(): void" style="text;strokeColor=none;fillColor=none;align=left;verticalAlign=top;spacingLeft=4;spacingRight=4;overflow=hidden;rotatable=0;points=[[0,0.5],[1,0.5]];portConstraint=eastwest;" parent="107" vertex="1">
                    <mxGeometry y="26" width="140" height="59" as="geometry"/>
                </mxCell>
                <mxCell id="121" value="" style="endArrow=block;html=1;rounded=1;fontSize=28;endFill=0;edgeStyle=orthogonalEdgeStyle;jumpStyle=arc;exitDx=0;exitDy=0;entryDx=0;entryDy=0;entryPerimeter=0;fillColor=#1ba1e2;strokeColor=#006EAF;" parent="1" source="107" target="84" edge="1">
                    <mxGeometry width="50" height="50" relative="1" as="geometry">
                        <mxPoint x="-422.75" y="2253.58" as="sourcePoint"/>
                        <mxPoint x="-348.7500000000002" y="2253.58" as="targetPoint"/>
                        <Array as="points">
                            <mxPoint x="1517" y="2502"/>
                            <mxPoint x="1433" y="2502"/>
                        </Array>
                    </mxGeometry>
                </mxCell>
                <mxCell id="126" value="Drop" style="swimlane;fontStyle=1;align=center;verticalAlign=top;childLayout=stackLayout;horizontal=1;startSize=26;horizontalStack=0;resizeParent=1;resizeParentMax=0;resizeLast=0;collapsible=1;marginBottom=0;" parent="1" vertex="1">
                    <mxGeometry x="966" y="2359" width="144" height="66" as="geometry"/>
                </mxCell>
                <mxCell id="127" value="+ item: Item&#10;+ chance: double&#10;" style="text;strokeColor=none;fillColor=none;align=left;verticalAlign=top;spacingLeft=4;spacingRight=4;overflow=hidden;rotatable=0;points=[[0,0.5],[1,0.5]];portConstraint=eastwest;" parent="126" vertex="1">
                    <mxGeometry y="26" width="144" height="40" as="geometry"/>
                </mxCell>
                <mxCell id="260" style="edgeStyle=orthogonalEdgeStyle;html=1;dashed=1;fontSize=28;endFill=0;endArrow=open;" parent="1" source="30" target="131" edge="1">
                    <mxGeometry relative="1" as="geometry">
                        <Array as="points">
                            <mxPoint x="202" y="2169"/>
                            <mxPoint x="202" y="2169"/>
                        </Array>
                    </mxGeometry>
                </mxCell>
                <mxCell id="131" value="EffectContainer" style="swimlane;fontStyle=1;align=center;verticalAlign=top;childLayout=stackLayout;horizontal=1;startSize=26;horizontalStack=0;resizeParent=1;resizeParentMax=0;resizeLast=0;collapsible=1;marginBottom=0;" parent="1" vertex="1">
                    <mxGeometry x="53" y="1896" width="318" height="244" as="geometry"/>
                </mxCell>
                <mxCell id="132" value="+ x: float&#10;+ y: float&#10;+ time: float&#10;+ lifetime: float&#10;+ rotation: float&#10;+ color: Color&#10;+ id: int&#10;+ data: Object&#10;+ innerContainer: EffectContainer" style="text;strokeColor=none;fillColor=none;align=left;verticalAlign=top;spacingLeft=4;spacingRight=4;overflow=hidden;rotatable=0;points=[[0,0.5],[1,0.5]];portConstraint=eastwest;" parent="131" vertex="1">
                    <mxGeometry y="26" width="318" height="137" as="geometry"/>
                </mxCell>
                <mxCell id="133" value="" style="line;strokeWidth=1;fillColor=none;align=left;verticalAlign=middle;spacingTop=-1;spacingLeft=3;spacingRight=3;rotatable=0;labelPosition=right;points=[];portConstraint=eastwest;" parent="131" vertex="1">
                    <mxGeometry y="163" width="318" height="8" as="geometry"/>
                </mxCell>
                <mxCell id="134" value="+ set(int, Color, float, float, float, float, float, Object): void&#10;+ data(): T&#10;+ scaled(float, Cons&lt;EffectContainer&gt;): void&#10;+ fin(): float" style="text;strokeColor=none;fillColor=none;align=left;verticalAlign=top;spacingLeft=4;spacingRight=4;overflow=hidden;rotatable=0;points=[[0,0.5],[1,0.5]];portConstraint=eastwest;" parent="131" vertex="1">
                    <mxGeometry y="171" width="318" height="73" as="geometry"/>
                </mxCell>
                <mxCell id="135" style="edgeStyle=orthogonalEdgeStyle;html=1;entryDx=0;entryDy=0;fontSize=28;endFill=0;endArrow=none;startFill=0;startArrow=circlePlus;startSize=3;fillColor=#e3c800;strokeColor=#B09500;" parent="1" source="30" target="131" edge="1">
                    <mxGeometry relative="1" as="geometry">
                        <mxPoint x="-109" y="1774" as="sourcePoint"/>
                        <mxPoint x="1141" y="3759.036" as="targetPoint"/>
                        <Array as="points">
                            <mxPoint x="176" y="2177"/>
                            <mxPoint x="176" y="2177"/>
                        </Array>
                    </mxGeometry>
                </mxCell>
                <mxCell id="136" value="" style="endArrow=open;dashed=1;html=1;rounded=1;fontSize=28;endFill=0;edgeStyle=orthogonalEdgeStyle;jumpStyle=arc;entryDx=0;entryDy=0;exitDx=0;exitDy=0;" parent="1" source="107" target="126" edge="1">
                    <mxGeometry width="50" height="50" relative="1" as="geometry">
                        <mxPoint x="-508.7499999999998" y="2200.58" as="sourcePoint"/>
                        <mxPoint x="-434.75" y="2200.58" as="targetPoint"/>
                        <Array as="points">
                            <mxPoint x="1517" y="2257"/>
                            <mxPoint x="1052" y="2257"/>
                        </Array>
                    </mxGeometry>
                </mxCell>
                <mxCell id="149" value="«enum»&#10;Dir" style="swimlane;fontStyle=1;align=center;verticalAlign=top;childLayout=stackLayout;horizontal=1;startSize=39;horizontalStack=0;resizeParent=1;resizeParentMax=0;resizeLast=0;collapsible=1;marginBottom=0;" parent="1" vertex="1">
                    <mxGeometry x="1117" y="1983" width="160" height="131" as="geometry"/>
                </mxCell>
                <mxCell id="150" value="+ flip, y: boolean&#10;+ suffix: String&#10;+ direction: Vec2" style="text;strokeColor=none;fillColor=none;align=left;verticalAlign=top;spacingLeft=4;spacingRight=4;overflow=hidden;rotatable=0;points=[[0,0.5],[1,0.5]];portConstraint=eastwest;" parent="149" vertex="1">
                    <mxGeometry y="39" width="160" height="58" as="geometry"/>
                </mxCell>
                <mxCell id="151" value="" style="line;strokeWidth=1;fillColor=none;align=left;verticalAlign=middle;spacingTop=-1;spacingLeft=3;spacingRight=3;rotatable=0;labelPosition=right;points=[];portConstraint=eastwest;" parent="149" vertex="1">
                    <mxGeometry y="97" width="160" height="8" as="geometry"/>
                </mxCell>
                <mxCell id="152" value="+ angle(float): DIr" style="text;strokeColor=none;fillColor=none;align=left;verticalAlign=top;spacingLeft=4;spacingRight=4;overflow=hidden;rotatable=0;points=[[0,0.5],[1,0.5]];portConstraint=eastwest;" parent="149" vertex="1">
                    <mxGeometry y="105" width="160" height="26" as="geometry"/>
                </mxCell>
                <mxCell id="155" value="" style="endArrow=open;html=1;rounded=1;fontSize=28;endFill=0;edgeStyle=orthogonalEdgeStyle;jumpStyle=arc;fillColor=#fad9d5;strokeColor=#ae4132;" parent="1" source="34" target="30" edge="1">
                    <mxGeometry width="50" height="50" relative="1" as="geometry">
                        <mxPoint x="740" y="3469" as="sourcePoint"/>
                        <mxPoint x="814.0000000000005" y="3469" as="targetPoint"/>
                        <Array as="points">
                            <mxPoint x="69" y="2480"/>
                            <mxPoint x="69" y="2480"/>
                        </Array>
                    </mxGeometry>
                </mxCell>
                <mxCell id="193" style="edgeStyle=orthogonalEdgeStyle;jumpStyle=arc;html=1;dashed=1;fontSize=28;endFill=0;endArrow=open;" parent="1" source="100" target="47" edge="1">
                    <mxGeometry relative="1" as="geometry">
                        <Array as="points">
                            <mxPoint x="771" y="2698"/>
                            <mxPoint x="771" y="2698"/>
                        </Array>
                    </mxGeometry>
                </mxCell>
                <mxCell id="176" style="edgeStyle=orthogonalEdgeStyle;html=1;entryDx=0;entryDy=0;endArrow=block;endFill=0;fillColor=#1ba1e2;strokeColor=#006EAF;" parent="1" source="100" target="76" edge="1">
                    <mxGeometry relative="1" as="geometry">
                        <Array as="points">
                            <mxPoint x="823" y="2816"/>
                            <mxPoint x="841" y="2816"/>
                        </Array>
                    </mxGeometry>
                </mxCell>
                <mxCell id="180" style="edgeStyle=orthogonalEdgeStyle;jumpStyle=arc;html=1;endArrow=block;endFill=0;fillColor=#1ba1e2;strokeColor=#006EAF;" parent="1" source="92" target="47" edge="1">
                    <mxGeometry relative="1" as="geometry">
                        <Array as="points">
                            <mxPoint x="899" y="2264"/>
                            <mxPoint x="899" y="2264"/>
                        </Array>
                    </mxGeometry>
                </mxCell>
                <mxCell id="221" style="edgeStyle=orthogonalEdgeStyle;html=1;endArrow=open;endFill=0;dashed=1;" parent="1" source="92" target="96" edge="1">
                    <mxGeometry relative="1" as="geometry">
                        <mxPoint x="381" y="3338" as="targetPoint"/>
                        <Array as="points">
                            <mxPoint x="649" y="2243"/>
                        </Array>
                    </mxGeometry>
                </mxCell>
                <mxCell id="223" style="edgeStyle=orthogonalEdgeStyle;html=1;entryDx=0;entryDy=0;dashed=1;endArrow=open;endFill=0;" parent="1" source="92" target="149" edge="1">
                    <mxGeometry relative="1" as="geometry">
                        <Array as="points">
                            <mxPoint x="1079" y="2093"/>
                            <mxPoint x="1079" y="2093"/>
                        </Array>
                    </mxGeometry>
                </mxCell>
                <mxCell id="224" style="edgeStyle=orthogonalEdgeStyle;html=1;dashed=1;endArrow=open;endFill=0;" parent="1" source="92" target="52" edge="1">
                    <mxGeometry relative="1" as="geometry">
                        <Array as="points">
                            <mxPoint x="804" y="2022"/>
                            <mxPoint x="804" y="2022"/>
                        </Array>
                    </mxGeometry>
                </mxCell>
                <mxCell id="194" style="edgeStyle=orthogonalEdgeStyle;jumpStyle=arc;html=1;dashed=1;fontSize=28;endFill=0;endArrow=open;" parent="1" source="100" target="30" edge="1">
                    <mxGeometry relative="1" as="geometry">
                        <Array as="points">
                            <mxPoint x="311" y="2926"/>
                        </Array>
                    </mxGeometry>
                </mxCell>
                <mxCell id="195" style="edgeStyle=orthogonalEdgeStyle;html=1;entryDx=0;entryDy=0;dashed=1;fontSize=28;endFill=0;endArrow=open;" parent="1" source="100" target="38" edge="1">
                    <mxGeometry relative="1" as="geometry">
                        <Array as="points">
                            <mxPoint x="760" y="2976"/>
                        </Array>
                    </mxGeometry>
                </mxCell>
                <mxCell id="196" style="edgeStyle=orthogonalEdgeStyle;html=1;entryDx=0;entryDy=0;dashed=1;fontSize=28;endFill=0;endArrow=open;jumpStyle=arc;" parent="1" source="100" target="52" edge="1">
                    <mxGeometry relative="1" as="geometry">
                        <Array as="points">
                            <mxPoint x="723" y="2500"/>
                            <mxPoint x="723" y="2500"/>
                        </Array>
                    </mxGeometry>
                </mxCell>
                <mxCell id="100" value="GemTorchEntity" style="swimlane;fontStyle=1;align=center;verticalAlign=top;childLayout=stackLayout;horizontal=1;startSize=26;horizontalStack=0;resizeParent=1;resizeParentMax=0;resizeLast=0;collapsible=1;marginBottom=0;" parent="1" vertex="1">
                    <mxGeometry x="680" y="2826" width="160" height="119" as="geometry"/>
                </mxCell>
                <mxCell id="101" value="~ time: Interval" style="text;strokeColor=none;fillColor=none;align=left;verticalAlign=top;spacingLeft=4;spacingRight=4;overflow=hidden;rotatable=0;points=[[0,0.5],[1,0.5]];portConstraint=eastwest;" parent="100" vertex="1">
                    <mxGeometry y="26" width="160" height="26" as="geometry"/>
                </mxCell>
                <mxCell id="102" value="" style="line;strokeWidth=1;fillColor=none;align=left;verticalAlign=middle;spacingTop=-1;spacingLeft=3;spacingRight=3;rotatable=0;labelPosition=right;points=[];portConstraint=eastwest;" parent="100" vertex="1">
                    <mxGeometry y="52" width="160" height="8" as="geometry"/>
                </mxCell>
                <mxCell id="103" value="+ update(): void&#10;+ draw(): void&#10;+ clipSize(): type" style="text;strokeColor=none;fillColor=none;align=left;verticalAlign=top;spacingLeft=4;spacingRight=4;overflow=hidden;rotatable=0;points=[[0,0.5],[1,0.5]];portConstraint=eastwest;" parent="100" vertex="1">
                    <mxGeometry y="60" width="160" height="59" as="geometry"/>
                </mxCell>
                <mxCell id="212" value="" style="edgeStyle=orthogonalEdgeStyle;html=1;dashed=1;fontSize=28;endFill=0;endArrow=open;" parent="1" source="84" target="47" edge="1">
                    <mxGeometry width="50" height="50" relative="1" as="geometry">
                        <mxPoint x="1083" y="2550" as="sourcePoint"/>
                        <mxPoint x="1157" y="2550" as="targetPoint"/>
                        <Array as="points">
                            <mxPoint x="1134" y="2581"/>
                            <mxPoint x="1134" y="2581"/>
                        </Array>
                    </mxGeometry>
                </mxCell>
                <mxCell id="210" style="edgeStyle=orthogonalEdgeStyle;html=1;dashed=1;fontSize=28;endFill=0;endArrow=open;" parent="1" source="68" target="47" edge="1">
                    <mxGeometry relative="1" as="geometry">
                        <Array as="points">
                            <mxPoint x="905" y="2736"/>
                            <mxPoint x="905" y="2736"/>
                        </Array>
                    </mxGeometry>
                </mxCell>
                <mxCell id="68" value="TorchEntity" style="swimlane;fontStyle=1;align=center;verticalAlign=top;childLayout=stackLayout;horizontal=1;startSize=26;horizontalStack=0;resizeParent=1;resizeParentMax=0;resizeLast=0;collapsible=1;marginBottom=0;" parent="1" vertex="1">
                    <mxGeometry x="855" y="2826" width="160" height="117" as="geometry"/>
                </mxCell>
                <mxCell id="69" value="~ time: Interval" style="text;strokeColor=none;fillColor=none;align=left;verticalAlign=top;spacingLeft=4;spacingRight=4;overflow=hidden;rotatable=0;points=[[0,0.5],[1,0.5]];portConstraint=eastwest;" parent="68" vertex="1">
                    <mxGeometry y="26" width="160" height="26" as="geometry"/>
                </mxCell>
                <mxCell id="70" value="" style="line;strokeWidth=1;fillColor=none;align=left;verticalAlign=middle;spacingTop=-1;spacingLeft=3;spacingRight=3;rotatable=0;labelPosition=right;points=[];portConstraint=eastwest;" parent="68" vertex="1">
                    <mxGeometry y="52" width="160" height="8" as="geometry"/>
                </mxCell>
                <mxCell id="71" value="+ update(): void&#10;+ draw(): void&#10;+ clipSize(): float" style="text;strokeColor=none;fillColor=none;align=left;verticalAlign=top;spacingLeft=4;spacingRight=4;overflow=hidden;rotatable=0;points=[[0,0.5],[1,0.5]];portConstraint=eastwest;" parent="68" vertex="1">
                    <mxGeometry y="60" width="160" height="57" as="geometry"/>
                </mxCell>
                <mxCell id="215" style="edgeStyle=orthogonalEdgeStyle;html=1;entryDx=0;entryDy=0;dashed=1;fontSize=28;endFill=0;endArrow=open;jumpStyle=arc;" parent="1" source="84" target="92" edge="1">
                    <mxGeometry relative="1" as="geometry">
                        <Array as="points">
                            <mxPoint x="950" y="2570"/>
                        </Array>
                    </mxGeometry>
                </mxCell>
                <mxCell id="216" style="edgeStyle=orthogonalEdgeStyle;html=1;dashed=1;fontSize=28;endFill=0;endArrow=open;jumpStyle=arc;" parent="1" source="84" target="52" edge="1">
                    <mxGeometry relative="1" as="geometry">
                        <Array as="points">
                            <mxPoint x="1614" y="2622"/>
                            <mxPoint x="1614" y="1950"/>
                        </Array>
                    </mxGeometry>
                </mxCell>
                <mxCell id="84" value="SnowDemon" style="swimlane;fontStyle=1;align=center;verticalAlign=top;childLayout=stackLayout;horizontal=1;startSize=26;horizontalStack=0;resizeParent=1;resizeParentMax=0;resizeLast=0;collapsible=1;marginBottom=0;" parent="1" vertex="1">
                    <mxGeometry x="1353" y="2533" width="160" height="177" as="geometry"/>
                </mxCell>
                <mxCell id="85" value="~ drops: Array&lt;Drop&gt;&#10;~ name: String&#10;~ attacklerp: float&#10;" style="text;strokeColor=none;fillColor=none;align=left;verticalAlign=top;spacingLeft=4;spacingRight=4;overflow=hidden;rotatable=0;points=[[0,0.5],[1,0.5]];portConstraint=eastwest;" parent="84" vertex="1">
                    <mxGeometry y="26" width="160" height="55" as="geometry"/>
                </mxCell>
                <mxCell id="86" value="" style="line;strokeWidth=1;fillColor=none;align=left;verticalAlign=middle;spacingTop=-1;spacingLeft=3;spacingRight=3;rotatable=0;labelPosition=right;points=[];portConstraint=eastwest;" parent="84" vertex="1">
                    <mxGeometry y="81" width="160" height="8" as="geometry"/>
                </mxCell>
                <mxCell id="87" value="+ damage(): float&#10;+ speed(): float&#10;+ drops(): Array&lt;Drop&gt;&#10;+ update(): void&#10;+ draw(): void" style="text;strokeColor=none;fillColor=none;align=left;verticalAlign=top;spacingLeft=4;spacingRight=4;overflow=hidden;rotatable=0;points=[[0,0.5],[1,0.5]];portConstraint=eastwest;" parent="84" vertex="1">
                    <mxGeometry y="89" width="160" height="88" as="geometry"/>
                </mxCell>
                <mxCell id="214" style="edgeStyle=orthogonalEdgeStyle;html=1;entryDx=0;entryDy=0;endArrow=block;endFill=0;fillColor=#1ba1e2;strokeColor=#006EAF;" parent="1" source="84" target="38" edge="1">
                    <mxGeometry relative="1" as="geometry"/>
                </mxCell>
                <mxCell id="227" style="edgeStyle=orthogonalEdgeStyle;html=1;entryDx=0;entryDy=0;endArrow=open;endFill=0;fontSize=28;startFill=1;startArrow=diamond;fillColor=#60a917;strokeColor=#2D7600;" parent="1" source="93" target="149" edge="1">
                    <mxGeometry relative="1" as="geometry">
                        <Array as="points">
                            <mxPoint x="1082" y="2040"/>
                            <mxPoint x="1082" y="2040"/>
                        </Array>
                    </mxGeometry>
                </mxCell>
                <mxCell id="230" style="edgeStyle=orthogonalEdgeStyle;html=1;endArrow=open;endFill=0;dashed=1;fontSize=28;" parent="1" source="41" target="96" edge="1">
                    <mxGeometry relative="1" as="geometry">
                        <Array as="points">
                            <mxPoint x="541" y="2999"/>
                        </Array>
                    </mxGeometry>
                </mxCell>
                <mxCell id="232" style="edgeStyle=orthogonalEdgeStyle;html=1;endArrow=open;endFill=0;dashed=1;fontSize=28;jumpStyle=arc;" parent="1" source="45" target="96" edge="1">
                    <mxGeometry relative="1" as="geometry">
                        <mxPoint x="335" y="3480" as="targetPoint"/>
                        <Array as="points">
                            <mxPoint x="496" y="2452"/>
                            <mxPoint x="496" y="2452"/>
                        </Array>
                    </mxGeometry>
                </mxCell>
                <mxCell id="235" style="edgeStyle=orthogonalEdgeStyle;html=1;entryDx=0;entryDy=0;endArrow=open;endFill=0;dashed=1;fontSize=28;" parent="1" source="96" target="52" edge="1">
                    <mxGeometry relative="1" as="geometry">
                        <Array as="points">
                            <mxPoint x="616" y="2349"/>
                            <mxPoint x="616" y="2349"/>
                        </Array>
                    </mxGeometry>
                </mxCell>
                <mxCell id="236" style="edgeStyle=orthogonalEdgeStyle;html=1;endArrow=open;endFill=0;dashed=1;fontSize=28;jumpStyle=arc;" parent="1" source="96" target="30" edge="1">
                    <mxGeometry relative="1" as="geometry">
                        <Array as="points">
                            <mxPoint x="330" y="2518"/>
                        </Array>
                    </mxGeometry>
                </mxCell>
                <mxCell id="92" value="Player" style="swimlane;fontStyle=1;align=center;verticalAlign=top;childLayout=stackLayout;horizontal=1;startSize=26;horizontalStack=0;resizeParent=1;resizeParentMax=0;resizeLast=0;collapsible=1;marginBottom=0;" parent="1" vertex="1">
                    <mxGeometry x="855" y="1986" width="188" height="266" as="geometry"/>
                </mxCell>
                <mxCell id="93" value="+ height: float&#10;+ dir: Dir&#10;+ heat: float&#10;+ smoothHeat: float&#10;+ moveTime: float&#10;+ hitTime: float&#10;+ attackTime: float" style="text;strokeColor=none;fillColor=none;align=left;verticalAlign=top;spacingLeft=4;spacingRight=4;overflow=hidden;rotatable=0;points=[[0,0.5],[1,0.5]];portConstraint=eastwest;" parent="92" vertex="1">
                    <mxGeometry y="26" width="188" height="110" as="geometry"/>
                </mxCell>
                <mxCell id="94" value="" style="line;strokeWidth=1;fillColor=none;align=left;verticalAlign=middle;spacingTop=-1;spacingLeft=3;spacingRight=3;rotatable=0;labelPosition=right;points=[];portConstraint=eastwest;" parent="92" vertex="1">
                    <mxGeometry y="136" width="188" height="8" as="geometry"/>
                </mxCell>
                <mxCell id="95" value="+ update(): void&#10;+ angle(): float&#10;~ hovered(): Entity&#10;+ draw(): void&#10;+ damagePeriodic(float): boolean&#10;+ withinTile(): boolean&#10;+ drawDirection(Dir): void" style="text;strokeColor=none;fillColor=none;align=left;verticalAlign=top;spacingLeft=4;spacingRight=4;overflow=hidden;rotatable=0;points=[[0,0.5],[1,0.5]];portConstraint=eastwest;" parent="92" vertex="1">
                    <mxGeometry y="144" width="188" height="122" as="geometry"/>
                </mxCell>
                <mxCell id="178" style="edgeStyle=orthogonalEdgeStyle;html=1;entryDx=0;entryDy=0;entryPerimeter=0;jumpStyle=arc;endArrow=block;endFill=0;fontSize=28;fillColor=#1ba1e2;strokeColor=#006EAF;" parent="1" source="72" target="47" edge="1">
                    <mxGeometry relative="1" as="geometry">
                        <Array as="points">
                            <mxPoint x="490" y="2660"/>
                            <mxPoint x="490" y="2660"/>
                        </Array>
                    </mxGeometry>
                </mxCell>
                <mxCell id="209" style="edgeStyle=orthogonalEdgeStyle;html=1;dashed=1;fontSize=28;endFill=0;endArrow=open;jumpStyle=arc;" parent="1" source="68" target="30" edge="1">
                    <mxGeometry relative="1" as="geometry">
                        <Array as="points">
                            <mxPoint x="898" y="2960"/>
                            <mxPoint x="284" y="2960"/>
                        </Array>
                    </mxGeometry>
                </mxCell>
                <mxCell id="213" style="edgeStyle=orthogonalEdgeStyle;html=1;dashed=1;fontSize=28;endFill=0;endArrow=open;jumpStyle=arc;" parent="1" source="84" target="30" edge="1">
                    <mxGeometry relative="1" as="geometry">
                        <Array as="points">
                            <mxPoint x="1576" y="2675"/>
                            <mxPoint x="1576" y="3059"/>
                            <mxPoint x="234" y="3059"/>
                        </Array>
                    </mxGeometry>
                </mxCell>
                <mxCell id="254" value="" style="endArrow=open;html=1;rounded=1;fontSize=28;endFill=0;edgeStyle=orthogonalEdgeStyle;jumpStyle=none;entryDx=0;entryDy=0;exitDx=0;exitDy=0;startArrow=diamond;startFill=1;fillColor=#60a917;strokeColor=#2D7600;" parent="1" source="84" target="126" edge="1">
                    <mxGeometry width="50" height="50" relative="1" as="geometry">
                        <mxPoint x="1471.94" y="2787" as="sourcePoint"/>
                        <mxPoint x="1252.9988235294122" y="2799" as="targetPoint"/>
                        <Array as="points">
                            <mxPoint x="1076" y="2561"/>
                        </Array>
                    </mxGeometry>
                </mxCell>
                <mxCell id="258" style="edgeStyle=orthogonalEdgeStyle;html=1;exitDx=0;exitDy=0;entryDx=0;entryDy=0;dashed=1;endArrow=open;endFill=0;jumpStyle=arc;" parent="1" source="47" target="17" edge="1">
                    <mxGeometry relative="1" as="geometry">
                        <mxPoint x="1135" y="2775" as="sourcePoint"/>
                        <mxPoint x="1135" y="2661" as="targetPoint"/>
                        <Array as="points">
                            <mxPoint x="1056" y="2630"/>
                            <mxPoint x="1056" y="2630"/>
                        </Array>
                    </mxGeometry>
                </mxCell>
                <mxCell id="259" style="edgeStyle=orthogonalEdgeStyle;html=1;exitDx=0;exitDy=0;entryDx=0;entryDy=0;dashed=1;endArrow=open;endFill=0;jumpStyle=arc;" parent="1" source="17" target="47" edge="1">
                    <mxGeometry relative="1" as="geometry">
                        <mxPoint x="800" y="2843.034482758621" as="sourcePoint"/>
                        <mxPoint x="835.9999999999995" y="2843.034482758621" as="targetPoint"/>
                        <Array as="points">
                            <mxPoint x="1040" y="2648"/>
                            <mxPoint x="1040" y="2648"/>
                        </Array>
                    </mxGeometry>
                </mxCell>
                <mxCell id="211" style="edgeStyle=orthogonalEdgeStyle;html=1;dashed=1;fontSize=28;endFill=0;endArrow=open;jumpStyle=arc;" parent="1" source="68" target="52" edge="1">
                    <mxGeometry relative="1" as="geometry">
                        <Array as="points">
                            <mxPoint x="975" y="3078"/>
                            <mxPoint x="1657" y="3078"/>
                            <mxPoint x="1657" y="1906"/>
                        </Array>
                    </mxGeometry>
                </mxCell>
                <mxCell id="262" style="edgeStyle=orthogonalEdgeStyle;html=1;dashed=1;fontSize=28;endFill=0;endArrow=open;" parent="1" source="53" target="131" edge="1">
                    <mxGeometry relative="1" as="geometry">
                        <Array as="points">
                            <mxPoint x="471" y="2042"/>
                            <mxPoint x="471" y="2042"/>
                        </Array>
                    </mxGeometry>
                </mxCell>
                <mxCell id="277" style="edgeStyle=orthogonalEdgeStyle;jumpStyle=arc;html=1;dashed=1;fontSize=28;endFill=0;endArrow=open;" parent="1" source="96" target="271" edge="1">
                    <mxGeometry relative="1" as="geometry">
                        <Array as="points">
                            <mxPoint x="412" y="2545"/>
                        </Array>
                    </mxGeometry>
                </mxCell>
                <mxCell id="96" value="ItemEntity" style="swimlane;fontStyle=1;align=center;verticalAlign=top;childLayout=stackLayout;horizontal=1;startSize=26;horizontalStack=0;resizeParent=1;resizeParentMax=0;resizeLast=0;collapsible=1;marginBottom=0;" parent="1" vertex="1">
                    <mxGeometry x="467" y="2467" width="205" height="156" as="geometry"/>
                </mxCell>
                <mxCell id="97" value="+ item: Item&#10;+ velocity: Vec2" style="text;strokeColor=none;fillColor=none;align=left;verticalAlign=top;spacingLeft=4;spacingRight=4;overflow=hidden;rotatable=0;points=[[0,0.5],[1,0.5]];portConstraint=eastwest;" parent="96" vertex="1">
                    <mxGeometry y="26" width="205" height="39" as="geometry"/>
                </mxCell>
                <mxCell id="98" value="" style="line;strokeWidth=1;fillColor=none;align=left;verticalAlign=middle;spacingTop=-1;spacingLeft=3;spacingRight=3;rotatable=0;labelPosition=right;points=[];portConstraint=eastwest;" parent="96" vertex="1">
                    <mxGeometry y="65" width="205" height="8" as="geometry"/>
                </mxCell>
                <mxCell id="99" value="+ update(): void&#10;+ clicked(): void&#10;+ solid(): boolean&#10;+ draw(): void&#10;+ create(Item, float, float): ItemEntity" style="text;strokeColor=none;fillColor=none;align=left;verticalAlign=top;spacingLeft=4;spacingRight=4;overflow=hidden;rotatable=0;points=[[0,0.5],[1,0.5]];portConstraint=eastwest;" parent="96" vertex="1">
                    <mxGeometry y="73" width="205" height="83" as="geometry"/>
                </mxCell>
                <mxCell id="268" style="edgeStyle=orthogonalEdgeStyle;html=1;endArrow=block;endFill=0;fontSize=28;jumpStyle=arc;fillColor=#1ba1e2;strokeColor=#006EAF;entryDx=0;entryDy=0;exitDx=0;exitDy=0;" parent="1" source="42" target="47" edge="1">
                    <mxGeometry relative="1" as="geometry">
                        <mxPoint x="695" y="2604" as="sourcePoint"/>
                        <mxPoint x="771" y="2493.529411764706" as="targetPoint"/>
                        <Array as="points">
                            <mxPoint x="563" y="2389"/>
                            <mxPoint x="563" y="2389"/>
                        </Array>
                    </mxGeometry>
                </mxCell>
                <mxCell id="271" value="ItemMove" style="swimlane;fontStyle=1;align=center;verticalAlign=top;childLayout=stackLayout;horizontal=1;startSize=26;horizontalStack=0;resizeParent=1;resizeParentMax=0;resizeLast=0;collapsible=1;marginBottom=0;" parent="1" vertex="1">
                    <mxGeometry x="382" y="1896" width="160" height="65" as="geometry"/>
                </mxCell>
                <mxCell id="272" value="+ target: Position&#10;+ item: Item" style="text;strokeColor=none;fillColor=none;align=left;verticalAlign=top;spacingLeft=4;spacingRight=4;overflow=hidden;rotatable=0;points=[[0,0.5],[1,0.5]];portConstraint=eastwest;" parent="271" vertex="1">
                    <mxGeometry y="26" width="160" height="39" as="geometry"/>
                </mxCell>
                <mxCell id="275" style="edgeStyle=orthogonalEdgeStyle;html=1;fontSize=28;strokeColor=#B09500;fillColor=#e3c800;endFill=0;endArrow=none;startFill=0;startArrow=circlePlus;startSize=3;" parent="1" source="53" target="271" edge="1">
                    <mxGeometry relative="1" as="geometry">
                        <Array as="points">
                            <mxPoint x="507" y="1991"/>
                        </Array>
                    </mxGeometry>
                </mxCell>
                <mxCell id="280" style="edgeStyle=orthogonalEdgeStyle;jumpStyle=arc;html=1;exitDx=0;exitDy=0;entryDx=0;entryDy=0;endArrow=open;endFill=0;startArrow=diamond;startFill=1;" parent="1" source="52" target="271" edge="1">
                    <mxGeometry relative="1" as="geometry">
                        <Array as="points">
                            <mxPoint x="468" y="2018"/>
                        </Array>
                    </mxGeometry>
                </mxCell>
                <mxCell id="281" value="&lt;div style=&quot;font-size: 30px&quot;&gt;&lt;font style=&quot;font-size: 30px&quot;&gt;&lt;b&gt;Template method&lt;/b&gt; - Use an abstract class that defines templates to execute its methods,&amp;nbsp;&lt;/font&gt;&lt;/div&gt;&lt;div style=&quot;font-size: 30px&quot;&gt;&lt;font style=&quot;font-size: 30px&quot;&gt;and subclasses may override the implementation.&lt;br&gt;&lt;br&gt;&lt;/font&gt;&lt;/div&gt;&lt;div style=&quot;font-size: 30px&quot;&gt;&lt;font style=&quot;font-size: 30px&quot;&gt;&lt;b&gt;Bridge&lt;/b&gt; - An interface which acts as a bridge, which makes the functionality of concrete classes &lt;br&gt;independent from interface implementer classes,&amp;nbsp;&lt;/font&gt;&lt;/div&gt;&lt;div style=&quot;font-size: 30px&quot;&gt;&lt;font style=&quot;font-size: 30px&quot;&gt;where both types of classes can be altered structurally without affecting each other.&lt;/font&gt;&lt;/div&gt;&lt;div style=&quot;font-size: 30px&quot;&gt;&lt;font style=&quot;font-size: 30px&quot;&gt;&lt;br&gt;&lt;/font&gt;&lt;/div&gt;&lt;div style=&quot;font-size: 30px&quot;&gt;&lt;font style=&quot;font-size: 30px&quot;&gt;&lt;b&gt;Factory&lt;/b&gt; - Method that creates new objects without specifying the exact class type&lt;/font&gt;&lt;/div&gt;&lt;div style=&quot;font-size: 30px&quot;&gt;&lt;font style=&quot;font-size: 30px&quot;&gt;&lt;b&gt;&lt;br&gt;&lt;/b&gt;&lt;/font&gt;&lt;/div&gt;&lt;div style=&quot;font-size: 30px&quot;&gt;&lt;font style=&quot;font-size: 30px&quot;&gt;&lt;b&gt;Chain of responsibility&lt;/b&gt; - Let different receivers handle a request as a chain.&lt;/font&gt;&lt;/div&gt;&lt;div style=&quot;font-size: 30px&quot;&gt;&lt;font style=&quot;font-size: 30px&quot;&gt;&lt;b&gt;&lt;br&gt;&lt;/b&gt;&lt;/font&gt;&lt;/div&gt;&lt;div style=&quot;font-size: 30px&quot;&gt;&lt;font style=&quot;font-size: 30px&quot;&gt;&lt;b&gt;Module&lt;/b&gt; - Group multiple related elements (classes, methods, interfaces) as one singular module.&lt;/font&gt;&lt;/div&gt;&lt;div style=&quot;font-size: 30px&quot;&gt;&lt;font style=&quot;font-size: 30px&quot;&gt;&lt;b&gt;&lt;br&gt;&lt;/b&gt;&lt;/font&gt;&lt;/div&gt;&lt;div style=&quot;font-size: 30px&quot;&gt;&lt;b&gt;Strategy&lt;/b&gt;&lt;span&gt; - Use different interface implementations to define how an action should be made.&lt;/span&gt;&lt;br&gt;&lt;/div&gt;&lt;div style=&quot;font-size: 30px&quot;&gt;&lt;font style=&quot;font-size: 30px&quot;&gt;&lt;b&gt;&lt;br&gt;&lt;/b&gt;&lt;/font&gt;&lt;/div&gt;&lt;div style=&quot;font-size: 30px&quot;&gt;&lt;font style=&quot;font-size: 30px&quot;&gt;&lt;b&gt;Decorator&lt;/b&gt; - Create a decorator class to wrap another class' functionality and provides additional &lt;br&gt;functionality to the original class without changing its signature.&lt;/font&gt;&lt;/div&gt;&lt;div style=&quot;font-size: 30px&quot;&gt;&lt;font style=&quot;font-size: 30px&quot;&gt;&lt;b&gt;&lt;br&gt;&lt;/b&gt;&lt;/font&gt;&lt;/div&gt;&lt;div style=&quot;font-size: 30px&quot;&gt;&lt;font style=&quot;font-size: 30px&quot;&gt;&lt;b&gt;Observer&lt;/b&gt; - If one object is modified, its dependent objects are to be notified automatically&lt;/font&gt;&lt;/div&gt;&lt;div style=&quot;font-size: 30px&quot;&gt;&lt;font style=&quot;font-size: 30px&quot;&gt;&lt;b&gt;&lt;br&gt;&lt;/b&gt;&lt;/font&gt;&lt;/div&gt;&lt;div style=&quot;font-size: 30px&quot;&gt;&lt;font style=&quot;font-size: 30px&quot;&gt;&lt;b&gt;Facade&lt;/b&gt; - Hide complexity behind oftentimes one singular class and expose functionality through class methods.&lt;/font&gt;&lt;/div&gt;&lt;div style=&quot;font-size: 30px&quot;&gt;&lt;font style=&quot;font-size: 30px&quot;&gt;&lt;b&gt;&lt;br&gt;&lt;/b&gt;&lt;/font&gt;&lt;/div&gt;&lt;div style=&quot;font-size: 30px&quot;&gt;&lt;font style=&quot;font-size: 30px&quot;&gt;&lt;b&gt;State&lt;/b&gt; - Change behavior as an internal state is changed.&lt;/font&gt;&lt;/div&gt;&lt;div style=&quot;font-size: 30px&quot;&gt;&lt;font style=&quot;font-size: 30px&quot;&gt;&lt;b&gt;&lt;br&gt;&lt;/b&gt;&lt;/font&gt;&lt;/div&gt;&lt;div style=&quot;font-size: 30px&quot;&gt;&lt;font style=&quot;font-size: 30px&quot;&gt;&lt;b&gt;Adapter&lt;/b&gt; - Adapts functionality of one interface to another&lt;/font&gt;&lt;/div&gt;&lt;div style=&quot;font-size: 30px&quot;&gt;&lt;font style=&quot;font-size: 30px&quot;&gt;&lt;b&gt;&lt;br&gt;&lt;/b&gt;&lt;/font&gt;&lt;/div&gt;&lt;div style=&quot;font-size: 30px&quot;&gt;&lt;font style=&quot;font-size: 30px&quot;&gt;&lt;b&gt;MVC&lt;/b&gt; - Model that handles data, View that visualises data from the model, Controller that acts on model from&amp;nbsp;&lt;/font&gt;&lt;/div&gt;&lt;div style=&quot;font-size: 30px&quot;&gt;&lt;font style=&quot;font-size: 30px&quot;&gt;the view, and handles data for the view&lt;/font&gt;&lt;/div&gt;" style="text;html=1;align=left;verticalAlign=middle;resizable=0;points=[];autosize=1;strokeColor=none;fillColor=none;fontSize=30;" parent="1" vertex="1">
                    <mxGeometry x="-2429" y="25" width="1494" height="1012" as="geometry"/>
                </mxCell>
                <mxCell id="282" value="ChalmersMapsAPI" style="swimlane;fontStyle=1;align=center;verticalAlign=top;childLayout=stackLayout;horizontal=1;startSize=26;horizontalStack=0;resizeParent=1;resizeParentMax=0;resizeLast=0;collapsible=1;marginBottom=0;" parent="1" vertex="1">
                    <mxGeometry x="284" y="269" width="263" height="107" as="geometry"/>
                </mxCell>
                <mxCell id="283" value="+ field: type" style="text;strokeColor=none;fillColor=none;align=left;verticalAlign=top;spacingLeft=4;spacingRight=4;overflow=hidden;rotatable=0;points=[[0,0.5],[1,0.5]];portConstraint=eastwest;" parent="282" vertex="1">
                    <mxGeometry y="26" width="263" height="26" as="geometry"/>
                </mxCell>
                <mxCell id="284" value="" style="line;strokeWidth=1;fillColor=none;align=left;verticalAlign=middle;spacingTop=-1;spacingLeft=3;spacingRight=3;rotatable=0;labelPosition=right;points=[];portConstraint=eastwest;" parent="282" vertex="1">
                    <mxGeometry y="52" width="263" height="8" as="geometry"/>
                </mxCell>
                <mxCell id="285" value="+ GetInfoBoard(building: Building)&#10;+ GetSchedule(uid: string): Schedule" style="text;strokeColor=none;fillColor=none;align=left;verticalAlign=top;spacingLeft=4;spacingRight=4;overflow=hidden;rotatable=0;points=[[0,0.5],[1,0.5]];portConstraint=eastwest;" parent="282" vertex="1">
                    <mxGeometry y="60" width="263" height="47" as="geometry"/>
                </mxCell>
                <mxCell id="309" value="RoomCache" style="swimlane;fontStyle=1;align=center;verticalAlign=top;childLayout=stackLayout;horizontal=1;startSize=26;horizontalStack=0;resizeParent=1;resizeParentMax=0;resizeLast=0;collapsible=1;marginBottom=0;" parent="1" vertex="1">
                    <mxGeometry x="23" y="423" width="160" height="86" as="geometry"/>
                </mxCell>
                <mxCell id="310" value="+ field: type" style="text;strokeColor=none;fillColor=none;align=left;verticalAlign=top;spacingLeft=4;spacingRight=4;overflow=hidden;rotatable=0;points=[[0,0.5],[1,0.5]];portConstraint=eastwest;" parent="309" vertex="1">
                    <mxGeometry y="26" width="160" height="26" as="geometry"/>
                </mxCell>
                <mxCell id="311" value="" style="line;strokeWidth=1;fillColor=none;align=left;verticalAlign=middle;spacingTop=-1;spacingLeft=3;spacingRight=3;rotatable=0;labelPosition=right;points=[];portConstraint=eastwest;" parent="309" vertex="1">
                    <mxGeometry y="52" width="160" height="8" as="geometry"/>
                </mxCell>
                <mxCell id="312" value="+ method(type): type" style="text;strokeColor=none;fillColor=none;align=left;verticalAlign=top;spacingLeft=4;spacingRight=4;overflow=hidden;rotatable=0;points=[[0,0.5],[1,0.5]];portConstraint=eastwest;" parent="309" vertex="1">
                    <mxGeometry y="60" width="160" height="26" as="geometry"/>
                </mxCell>
                <mxCell id="313" value="Room" style="swimlane;fontStyle=1;align=center;verticalAlign=top;childLayout=stackLayout;horizontal=1;startSize=26;horizontalStack=0;resizeParent=1;resizeParentMax=0;resizeLast=0;collapsible=1;marginBottom=0;" parent="1" vertex="1">
                    <mxGeometry x="23" y="583" width="160" height="86" as="geometry"/>
                </mxCell>
                <mxCell id="314" value="+ field: type" style="text;strokeColor=none;fillColor=none;align=left;verticalAlign=top;spacingLeft=4;spacingRight=4;overflow=hidden;rotatable=0;points=[[0,0.5],[1,0.5]];portConstraint=eastwest;" parent="313" vertex="1">
                    <mxGeometry y="26" width="160" height="26" as="geometry"/>
                </mxCell>
                <mxCell id="315" value="" style="line;strokeWidth=1;fillColor=none;align=left;verticalAlign=middle;spacingTop=-1;spacingLeft=3;spacingRight=3;rotatable=0;labelPosition=right;points=[];portConstraint=eastwest;" parent="313" vertex="1">
                    <mxGeometry y="52" width="160" height="8" as="geometry"/>
                </mxCell>
                <mxCell id="316" value="+ method(type): type" style="text;strokeColor=none;fillColor=none;align=left;verticalAlign=top;spacingLeft=4;spacingRight=4;overflow=hidden;rotatable=0;points=[[0,0.5],[1,0.5]];portConstraint=eastwest;" parent="313" vertex="1">
                    <mxGeometry y="60" width="160" height="26" as="geometry"/>
                </mxCell>
                <mxCell id="318" value="" style="endArrow=open;html=1;rounded=1;fontSize=28;endFill=0;edgeStyle=orthogonalEdgeStyle;jumpStyle=arc;" parent="1" source="309" target="313" edge="1">
                    <mxGeometry width="50" height="50" relative="1" as="geometry">
                        <mxPoint x="79" y="519" as="sourcePoint"/>
                        <mxPoint x="73" y="562" as="targetPoint"/>
                    </mxGeometry>
                </mxCell>
                <mxCell id="323" value="Booking" style="swimlane;fontStyle=1;align=center;verticalAlign=top;childLayout=stackLayout;horizontal=1;startSize=26;horizontalStack=0;resizeParent=1;resizeParentMax=0;resizeLast=0;collapsible=1;marginBottom=0;" parent="1" vertex="1">
                    <mxGeometry x="22" y="726" width="160" height="86" as="geometry"/>
                </mxCell>
                <mxCell id="324" value="+ field: type" style="text;strokeColor=none;fillColor=none;align=left;verticalAlign=top;spacingLeft=4;spacingRight=4;overflow=hidden;rotatable=0;points=[[0,0.5],[1,0.5]];portConstraint=eastwest;" parent="323" vertex="1">
                    <mxGeometry y="26" width="160" height="26" as="geometry"/>
                </mxCell>
                <mxCell id="325" value="" style="line;strokeWidth=1;fillColor=none;align=left;verticalAlign=middle;spacingTop=-1;spacingLeft=3;spacingRight=3;rotatable=0;labelPosition=right;points=[];portConstraint=eastwest;" parent="323" vertex="1">
                    <mxGeometry y="52" width="160" height="8" as="geometry"/>
                </mxCell>
                <mxCell id="326" value="+ method(type): type" style="text;strokeColor=none;fillColor=none;align=left;verticalAlign=top;spacingLeft=4;spacingRight=4;overflow=hidden;rotatable=0;points=[[0,0.5],[1,0.5]];portConstraint=eastwest;" parent="323" vertex="1">
                    <mxGeometry y="60" width="160" height="26" as="geometry"/>
                </mxCell>
                <mxCell id="327" value="" style="endArrow=open;html=1;rounded=1;fontSize=28;endFill=0;edgeStyle=orthogonalEdgeStyle;jumpStyle=arc;startArrow=diamond;startFill=1;" parent="1" source="313" target="323" edge="1">
                    <mxGeometry width="50" height="50" relative="1" as="geometry">
                        <mxPoint x="351" y="509" as="sourcePoint"/>
                        <mxPoint x="319" y="562" as="targetPoint"/>
                    </mxGeometry>
                </mxCell>
                <mxCell id="332" value="RoomService" style="swimlane;fontStyle=1;align=center;verticalAlign=top;childLayout=stackLayout;horizontal=1;startSize=26;horizontalStack=0;resizeParent=1;resizeParentMax=0;resizeLast=0;collapsible=1;marginBottom=0;" parent="1" vertex="1">
                    <mxGeometry x="24" y="276" width="160" height="86" as="geometry"/>
                </mxCell>
                <mxCell id="333" value="+ field: type" style="text;strokeColor=none;fillColor=none;align=left;verticalAlign=top;spacingLeft=4;spacingRight=4;overflow=hidden;rotatable=0;points=[[0,0.5],[1,0.5]];portConstraint=eastwest;" parent="332" vertex="1">
                    <mxGeometry y="26" width="160" height="26" as="geometry"/>
                </mxCell>
                <mxCell id="334" value="" style="line;strokeWidth=1;fillColor=none;align=left;verticalAlign=middle;spacingTop=-1;spacingLeft=3;spacingRight=3;rotatable=0;labelPosition=right;points=[];portConstraint=eastwest;" parent="332" vertex="1">
                    <mxGeometry y="52" width="160" height="8" as="geometry"/>
                </mxCell>
                <mxCell id="335" value="+ method(type): type" style="text;strokeColor=none;fillColor=none;align=left;verticalAlign=top;spacingLeft=4;spacingRight=4;overflow=hidden;rotatable=0;points=[[0,0.5],[1,0.5]];portConstraint=eastwest;" parent="332" vertex="1">
                    <mxGeometry y="60" width="160" height="26" as="geometry"/>
                </mxCell>
                <mxCell id="340" value="" style="endArrow=open;dashed=1;html=1;rounded=1;fontSize=28;endFill=0;edgeStyle=orthogonalEdgeStyle;jumpStyle=arc;" parent="1" source="332" target="282" edge="1">
                    <mxGeometry width="50" height="50" relative="1" as="geometry">
                        <mxPoint x="381" y="313.99999999999994" as="sourcePoint"/>
                        <mxPoint x="455" y="313.99999999999994" as="targetPoint"/>
                        <Array as="points">
                            <mxPoint x="365" y="322"/>
                            <mxPoint x="365" y="322"/>
                        </Array>
                    </mxGeometry>
                </mxCell>
                <mxCell id="344" value="&lt;font style=&quot;font-size: 18px&quot;&gt;Facade&lt;/font&gt;" style="text;html=1;align=center;verticalAlign=middle;resizable=0;points=[];autosize=1;strokeColor=none;fillColor=none;fontSize=30;" parent="1" vertex="1">
                    <mxGeometry x="-50" y="225" width="70" height="44" as="geometry"/>
                </mxCell>
                <mxCell id="345" value="" style="endArrow=open;html=1;rounded=1;fontSize=28;endFill=0;edgeStyle=orthogonalEdgeStyle;jumpStyle=arc;" parent="1" source="332" target="309" edge="1">
                    <mxGeometry width="50" height="50" relative="1" as="geometry">
                        <mxPoint x="44.25" y="394.5799999999999" as="sourcePoint"/>
                        <mxPoint x="118.25" y="394.5799999999999" as="targetPoint"/>
                    </mxGeometry>
                </mxCell>
                <mxCell id="348" value="&lt;font style=&quot;font-size: 18px&quot;&gt;Factory&lt;/font&gt;" style="text;html=1;align=center;verticalAlign=middle;resizable=0;points=[];autosize=1;strokeColor=none;fillColor=none;fontSize=30;" parent="1" vertex="1">
                    <mxGeometry x="-54" y="545" width="70" height="44" as="geometry"/>
                </mxCell>
                <mxCell id="349" value="&lt;font&gt;&lt;font style=&quot;font-size: 40px&quot;&gt;UML ish GETAROOM&lt;/font&gt;&lt;br&gt;&lt;/font&gt;" style="text;html=1;align=center;verticalAlign=middle;resizable=0;points=[];autosize=1;strokeColor=none;fillColor=none;fontSize=30;" parent="1" vertex="1">
                    <mxGeometry x="83" y="141" width="397" height="44" as="geometry"/>
                </mxCell>
                <mxCell id="351" value="n" style="text;html=1;align=center;verticalAlign=middle;resizable=0;points=[];autosize=1;strokeColor=none;fillColor=none;" parent="1" vertex="1">
                    <mxGeometry x="108" y="704" width="17" height="18" as="geometry"/>
                </mxCell>
                <mxCell id="352" value="1" style="text;html=1;align=center;verticalAlign=middle;resizable=0;points=[];autosize=1;strokeColor=none;fillColor=none;" parent="1" vertex="1">
                    <mxGeometry x="108" y="673" width="17" height="18" as="geometry"/>
                </mxCell>
                <mxCell id="353" value="n" style="text;html=1;align=center;verticalAlign=middle;resizable=0;points=[];autosize=1;strokeColor=none;fillColor=none;" parent="1" vertex="1">
                    <mxGeometry x="107" y="561" width="17" height="18" as="geometry"/>
                </mxCell>
                <mxCell id="354" value="1" style="text;html=1;align=center;verticalAlign=middle;resizable=0;points=[];autosize=1;strokeColor=none;fillColor=none;" parent="1" vertex="1">
                    <mxGeometry x="108" y="513" width="17" height="18" as="geometry"/>
                </mxCell>
                <mxCell id="355" value="1" style="text;html=1;align=center;verticalAlign=middle;resizable=0;points=[];autosize=1;strokeColor=none;fillColor=none;" parent="1" vertex="1">
                    <mxGeometry x="108" y="400" width="17" height="18" as="geometry"/>
                </mxCell>
                <mxCell id="356" value="1" style="text;html=1;align=center;verticalAlign=middle;resizable=0;points=[];autosize=1;strokeColor=none;fillColor=none;" parent="1" vertex="1">
                    <mxGeometry x="108" y="366" width="17" height="18" as="geometry"/>
                </mxCell>
                <mxCell id="357" value="1" style="text;html=1;align=center;verticalAlign=middle;resizable=0;points=[];autosize=1;strokeColor=none;fillColor=none;" parent="1" vertex="1">
                    <mxGeometry x="188" y="298" width="17" height="18" as="geometry"/>
                </mxCell>
                <mxCell id="358" value="1" style="text;html=1;align=center;verticalAlign=middle;resizable=0;points=[];autosize=1;strokeColor=none;fillColor=none;" parent="1" vertex="1">
                    <mxGeometry x="258" y="296" width="17" height="18" as="geometry"/>
                </mxCell>
                <mxCell id="359" value="ChalmersMapsAPI" style="swimlane;fontStyle=1;align=center;verticalAlign=top;childLayout=stackLayout;horizontal=1;startSize=26;horizontalStack=0;resizeParent=1;resizeParentMax=0;resizeLast=0;collapsible=1;marginBottom=0;" parent="1" vertex="1">
                    <mxGeometry x="1141" y="384" width="263" height="52" as="geometry"/>
                </mxCell>
                <mxCell id="360" value=" " style="text;strokeColor=none;fillColor=none;align=left;verticalAlign=top;spacingLeft=4;spacingRight=4;overflow=hidden;rotatable=0;points=[[0,0.5],[1,0.5]];portConstraint=eastwest;" parent="359" vertex="1">
                    <mxGeometry y="26" width="263" height="26" as="geometry"/>
                </mxCell>
                <mxCell id="363" value="RoomCache" style="swimlane;fontStyle=1;align=center;verticalAlign=top;childLayout=stackLayout;horizontal=1;startSize=26;horizontalStack=0;resizeParent=1;resizeParentMax=0;resizeLast=0;collapsible=1;marginBottom=0;" parent="1" vertex="1">
                    <mxGeometry x="1038" y="614" width="160" height="52" as="geometry"/>
                </mxCell>
                <mxCell id="364" value=" " style="text;strokeColor=none;fillColor=none;align=left;verticalAlign=top;spacingLeft=4;spacingRight=4;overflow=hidden;rotatable=0;points=[[0,0.5],[1,0.5]];portConstraint=eastwest;" parent="363" vertex="1">
                    <mxGeometry y="26" width="160" height="26" as="geometry"/>
                </mxCell>
                <mxCell id="367" value="Room" style="swimlane;fontStyle=1;align=center;verticalAlign=top;childLayout=stackLayout;horizontal=1;startSize=26;horizontalStack=0;resizeParent=1;resizeParentMax=0;resizeLast=0;collapsible=1;marginBottom=0;" parent="1" vertex="1">
                    <mxGeometry x="1038" y="724" width="160" height="52" as="geometry"/>
                </mxCell>
                <mxCell id="368" value=" " style="text;strokeColor=none;fillColor=none;align=left;verticalAlign=top;spacingLeft=4;spacingRight=4;overflow=hidden;rotatable=0;points=[[0,0.5],[1,0.5]];portConstraint=eastwest;" parent="367" vertex="1">
                    <mxGeometry y="26" width="160" height="26" as="geometry"/>
                </mxCell>
                <mxCell id="371" value="" style="endArrow=open;html=1;rounded=1;fontSize=28;endFill=0;edgeStyle=orthogonalEdgeStyle;jumpStyle=arc;" parent="1" source="363" target="367" edge="1">
                    <mxGeometry width="50" height="50" relative="1" as="geometry">
                        <mxPoint x="1094" y="710" as="sourcePoint"/>
                        <mxPoint x="1088" y="753" as="targetPoint"/>
                    </mxGeometry>
                </mxCell>
                <mxCell id="372" value="Booking" style="swimlane;fontStyle=1;align=center;verticalAlign=top;childLayout=stackLayout;horizontal=1;startSize=26;horizontalStack=0;resizeParent=1;resizeParentMax=0;resizeLast=0;collapsible=1;marginBottom=0;" parent="1" vertex="1">
                    <mxGeometry x="1037" y="837" width="160" height="52" as="geometry"/>
                </mxCell>
                <mxCell id="373" value=" " style="text;strokeColor=none;fillColor=none;align=left;verticalAlign=top;spacingLeft=4;spacingRight=4;overflow=hidden;rotatable=0;points=[[0,0.5],[1,0.5]];portConstraint=eastwest;" parent="372" vertex="1">
                    <mxGeometry y="26" width="160" height="26" as="geometry"/>
                </mxCell>
                <mxCell id="376" value="" style="endArrow=open;html=1;rounded=1;fontSize=28;endFill=0;edgeStyle=orthogonalEdgeStyle;jumpStyle=arc;startArrow=none;startFill=0;dashed=1;" parent="1" source="394" target="400" edge="1">
                    <mxGeometry width="50" height="50" relative="1" as="geometry">
                        <mxPoint x="1396" y="559" as="sourcePoint"/>
                        <mxPoint x="1394.999999999999" y="620" as="targetPoint"/>
                    </mxGeometry>
                </mxCell>
                <mxCell id="377" value="RoomService" style="swimlane;fontStyle=1;align=center;verticalAlign=top;childLayout=stackLayout;horizontal=1;startSize=26;horizontalStack=0;resizeParent=1;resizeParentMax=0;resizeLast=0;collapsible=1;marginBottom=0;" parent="1" vertex="1">
                    <mxGeometry x="1039" y="507" width="160" height="52" as="geometry"/>
                </mxCell>
                <mxCell id="378" value=" " style="text;strokeColor=none;fillColor=none;align=left;verticalAlign=top;spacingLeft=4;spacingRight=4;overflow=hidden;rotatable=0;points=[[0,0.5],[1,0.5]];portConstraint=eastwest;" parent="377" vertex="1">
                    <mxGeometry y="26" width="160" height="26" as="geometry"/>
                </mxCell>
                <mxCell id="381" value="" style="endArrow=open;dashed=1;html=1;rounded=1;fontSize=28;endFill=0;edgeStyle=orthogonalEdgeStyle;jumpStyle=arc;" parent="1" source="377" target="359" edge="1">
                    <mxGeometry width="50" height="50" relative="1" as="geometry">
                        <mxPoint x="1396" y="508.99999999999994" as="sourcePoint"/>
                        <mxPoint x="1470" y="508.99999999999994" as="targetPoint"/>
                        <Array as="points">
                            <mxPoint x="1119" y="471"/>
                            <mxPoint x="1273" y="471"/>
                        </Array>
                    </mxGeometry>
                </mxCell>
                <mxCell id="382" value="" style="endArrow=open;html=1;rounded=1;fontSize=28;endFill=0;edgeStyle=orthogonalEdgeStyle;jumpStyle=arc;" parent="1" source="377" target="363" edge="1">
                    <mxGeometry width="50" height="50" relative="1" as="geometry">
                        <mxPoint x="1059.25" y="625.5799999999999" as="sourcePoint"/>
                        <mxPoint x="1133.25" y="625.5799999999999" as="targetPoint"/>
                        <Array as="points">
                            <mxPoint x="1118" y="573"/>
                            <mxPoint x="1118" y="573"/>
                        </Array>
                    </mxGeometry>
                </mxCell>
                <mxCell id="383" value="n" style="text;html=1;align=center;verticalAlign=middle;resizable=0;points=[];autosize=1;strokeColor=none;fillColor=none;" parent="1" vertex="1">
                    <mxGeometry x="1412" y="596" width="17" height="18" as="geometry"/>
                </mxCell>
                <mxCell id="384" value="1" style="text;html=1;align=center;verticalAlign=middle;resizable=0;points=[];autosize=1;strokeColor=none;fillColor=none;" parent="1" vertex="1">
                    <mxGeometry x="1412" y="566" width="17" height="18" as="geometry"/>
                </mxCell>
                <mxCell id="385" value="n" style="text;html=1;align=center;verticalAlign=middle;resizable=0;points=[];autosize=1;strokeColor=none;fillColor=none;" parent="1" vertex="1">
                    <mxGeometry x="1123" y="699" width="17" height="18" as="geometry"/>
                </mxCell>
                <mxCell id="386" value="1" style="text;html=1;align=center;verticalAlign=middle;resizable=0;points=[];autosize=1;strokeColor=none;fillColor=none;" parent="1" vertex="1">
                    <mxGeometry x="1123" y="671" width="17" height="18" as="geometry"/>
                </mxCell>
                <mxCell id="387" value="1" style="text;html=1;align=center;verticalAlign=middle;resizable=0;points=[];autosize=1;strokeColor=none;fillColor=none;" parent="1" vertex="1">
                    <mxGeometry x="1123" y="591" width="17" height="18" as="geometry"/>
                </mxCell>
                <mxCell id="388" value="1" style="text;html=1;align=center;verticalAlign=middle;resizable=0;points=[];autosize=1;strokeColor=none;fillColor=none;" parent="1" vertex="1">
                    <mxGeometry x="1123" y="565" width="17" height="18" as="geometry"/>
                </mxCell>
                <mxCell id="389" value="1" style="text;html=1;align=center;verticalAlign=middle;resizable=0;points=[];autosize=1;strokeColor=none;fillColor=none;" parent="1" vertex="1">
                    <mxGeometry x="1096" y="485" width="17" height="18" as="geometry"/>
                </mxCell>
                <mxCell id="390" value="1" style="text;html=1;align=center;verticalAlign=middle;resizable=0;points=[];autosize=1;strokeColor=none;fillColor=none;" parent="1" vertex="1">
                    <mxGeometry x="1239" y="435" width="17" height="18" as="geometry"/>
                </mxCell>
                <mxCell id="392" value="&lt;font&gt;&lt;font style=&quot;font-size: 40px&quot;&gt;DOMAIN MODEL GETAROOM&lt;/font&gt;&lt;br&gt;&lt;/font&gt;" style="text;html=1;align=center;verticalAlign=middle;resizable=0;points=[];autosize=1;strokeColor=none;fillColor=none;fontSize=30;" parent="1" vertex="1">
                    <mxGeometry x="1008.5" y="310" width="563" height="44" as="geometry"/>
                </mxCell>
                <mxCell id="393" value="&lt;font style=&quot;font-size: 18px&quot;&gt;Module&lt;/font&gt;" style="text;html=1;align=center;verticalAlign=middle;resizable=0;points=[];autosize=1;strokeColor=none;fillColor=none;fontSize=30;" parent="1" vertex="1">
                    <mxGeometry x="210" y="200" width="69" height="44" as="geometry"/>
                </mxCell>
                <mxCell id="394" value="RouteService" style="swimlane;fontStyle=1;align=center;verticalAlign=top;childLayout=stackLayout;horizontal=1;startSize=26;horizontalStack=0;resizeParent=1;resizeParentMax=0;resizeLast=0;collapsible=1;marginBottom=0;" vertex="1" parent="1">
                    <mxGeometry x="1321" y="505" width="160" height="52" as="geometry"/>
                </mxCell>
                <mxCell id="395" value=" " style="text;strokeColor=none;fillColor=none;align=left;verticalAlign=top;spacingLeft=4;spacingRight=4;overflow=hidden;rotatable=0;points=[[0,0.5],[1,0.5]];portConstraint=eastwest;" vertex="1" parent="394">
                    <mxGeometry y="26" width="160" height="26" as="geometry"/>
                </mxCell>
                <mxCell id="399" value="" style="endArrow=open;dashed=1;html=1;rounded=1;fontSize=28;endFill=0;edgeStyle=orthogonalEdgeStyle;jumpStyle=arc;" edge="1" parent="1" source="394" target="359">
                    <mxGeometry width="50" height="50" relative="1" as="geometry">
                        <mxPoint x="1129" y="517.0000000000002" as="sourcePoint"/>
                        <mxPoint x="1274" y="458" as="targetPoint"/>
                        <Array as="points">
                            <mxPoint x="1401" y="470"/>
                            <mxPoint x="1274" y="470"/>
                        </Array>
                    </mxGeometry>
                </mxCell>
                <mxCell id="400" value="Route" style="swimlane;fontStyle=1;align=center;verticalAlign=top;childLayout=stackLayout;horizontal=1;startSize=26;horizontalStack=0;resizeParent=1;resizeParentMax=0;resizeLast=0;collapsible=1;marginBottom=0;" vertex="1" parent="1">
                    <mxGeometry x="1321" y="621" width="160" height="52" as="geometry"/>
                </mxCell>
                <mxCell id="401" value=" " style="text;strokeColor=none;fillColor=none;align=left;verticalAlign=top;spacingLeft=4;spacingRight=4;overflow=hidden;rotatable=0;points=[[0,0.5],[1,0.5]];portConstraint=eastwest;" vertex="1" parent="400">
                    <mxGeometry y="26" width="160" height="26" as="geometry"/>
                </mxCell>
                <mxCell id="402" value="1" style="text;html=1;align=center;verticalAlign=middle;resizable=0;points=[];autosize=1;strokeColor=none;fillColor=none;" vertex="1" parent="1">
                    <mxGeometry x="1121" y="780" width="17" height="18" as="geometry"/>
                </mxCell>
                <mxCell id="403" value="" style="endArrow=open;html=1;rounded=1;fontSize=28;endFill=0;edgeStyle=orthogonalEdgeStyle;jumpStyle=arc;" edge="1" parent="1" source="367" target="372">
                    <mxGeometry width="50" height="50" relative="1" as="geometry">
                        <mxPoint x="1126" y="778" as="sourcePoint"/>
                        <mxPoint x="1126" y="836" as="targetPoint"/>
                        <Array as="points">
                            <mxPoint x="1117" y="792"/>
                            <mxPoint x="1117" y="792"/>
                        </Array>
                    </mxGeometry>
                </mxCell>
                <mxCell id="404" value="n" style="text;html=1;align=center;verticalAlign=middle;resizable=0;points=[];autosize=1;strokeColor=none;fillColor=none;" vertex="1" parent="1">
                    <mxGeometry x="1121" y="817" width="17" height="18" as="geometry"/>
                </mxCell>
                <mxCell id="407" value="ChalmersMapsAPI" style="swimlane;fontStyle=1;align=center;verticalAlign=top;childLayout=stackLayout;horizontal=1;startSize=26;horizontalStack=0;resizeParent=1;resizeParentMax=0;resizeLast=0;collapsible=1;marginBottom=0;" vertex="1" parent="1">
                    <mxGeometry x="1741" y="374" width="263" height="52" as="geometry"/>
                </mxCell>
                <mxCell id="408" value=" " style="text;strokeColor=none;fillColor=none;align=left;verticalAlign=top;spacingLeft=4;spacingRight=4;overflow=hidden;rotatable=0;points=[[0,0.5],[1,0.5]];portConstraint=eastwest;" vertex="1" parent="407">
                    <mxGeometry y="26" width="263" height="26" as="geometry"/>
                </mxCell>
                <mxCell id="409" value="???????" style="swimlane;fontStyle=1;align=center;verticalAlign=top;childLayout=stackLayout;horizontal=1;startSize=26;horizontalStack=0;resizeParent=1;resizeParentMax=0;resizeLast=0;collapsible=1;marginBottom=0;" vertex="1" parent="1">
                    <mxGeometry x="1638" y="604" width="160" height="52" as="geometry"/>
                </mxCell>
                <mxCell id="410" value=" " style="text;strokeColor=none;fillColor=none;align=left;verticalAlign=top;spacingLeft=4;spacingRight=4;overflow=hidden;rotatable=0;points=[[0,0.5],[1,0.5]];portConstraint=eastwest;" vertex="1" parent="409">
                    <mxGeometry y="26" width="160" height="26" as="geometry"/>
                </mxCell>
                <mxCell id="411" value="Room" style="swimlane;fontStyle=1;align=center;verticalAlign=top;childLayout=stackLayout;horizontal=1;startSize=26;horizontalStack=0;resizeParent=1;resizeParentMax=0;resizeLast=0;collapsible=1;marginBottom=0;" vertex="1" parent="1">
                    <mxGeometry x="1638" y="714" width="160" height="52" as="geometry"/>
                </mxCell>
                <mxCell id="412" value=" " style="text;strokeColor=none;fillColor=none;align=left;verticalAlign=top;spacingLeft=4;spacingRight=4;overflow=hidden;rotatable=0;points=[[0,0.5],[1,0.5]];portConstraint=eastwest;" vertex="1" parent="411">
                    <mxGeometry y="26" width="160" height="26" as="geometry"/>
                </mxCell>
                <mxCell id="413" value="" style="endArrow=open;html=1;rounded=1;fontSize=28;endFill=0;edgeStyle=orthogonalEdgeStyle;jumpStyle=arc;" edge="1" parent="1" source="409" target="411">
                    <mxGeometry width="50" height="50" relative="1" as="geometry">
                        <mxPoint x="1694" y="700" as="sourcePoint"/>
                        <mxPoint x="1688" y="743" as="targetPoint"/>
                    </mxGeometry>
                </mxCell>
                <mxCell id="414" value="Booking" style="swimlane;fontStyle=1;align=center;verticalAlign=top;childLayout=stackLayout;horizontal=1;startSize=26;horizontalStack=0;resizeParent=1;resizeParentMax=0;resizeLast=0;collapsible=1;marginBottom=0;" vertex="1" parent="1">
                    <mxGeometry x="1637" y="827" width="160" height="52" as="geometry"/>
                </mxCell>
                <mxCell id="415" value=" " style="text;strokeColor=none;fillColor=none;align=left;verticalAlign=top;spacingLeft=4;spacingRight=4;overflow=hidden;rotatable=0;points=[[0,0.5],[1,0.5]];portConstraint=eastwest;" vertex="1" parent="414">
                    <mxGeometry y="26" width="160" height="26" as="geometry"/>
                </mxCell>
                <mxCell id="416" value="" style="endArrow=open;html=1;rounded=1;fontSize=28;endFill=0;edgeStyle=orthogonalEdgeStyle;jumpStyle=arc;startArrow=none;startFill=0;dashed=1;" edge="1" parent="1" source="429" target="432">
                    <mxGeometry width="50" height="50" relative="1" as="geometry">
                        <mxPoint x="1996" y="549" as="sourcePoint"/>
                        <mxPoint x="1994.999999999999" y="610" as="targetPoint"/>
                    </mxGeometry>
                </mxCell>
                <mxCell id="417" value="RoomService" style="swimlane;fontStyle=1;align=center;verticalAlign=top;childLayout=stackLayout;horizontal=1;startSize=26;horizontalStack=0;resizeParent=1;resizeParentMax=0;resizeLast=0;collapsible=1;marginBottom=0;" vertex="1" parent="1">
                    <mxGeometry x="1639" y="497" width="160" height="52" as="geometry"/>
                </mxCell>
                <mxCell id="418" value=" " style="text;strokeColor=none;fillColor=none;align=left;verticalAlign=top;spacingLeft=4;spacingRight=4;overflow=hidden;rotatable=0;points=[[0,0.5],[1,0.5]];portConstraint=eastwest;" vertex="1" parent="417">
                    <mxGeometry y="26" width="160" height="26" as="geometry"/>
                </mxCell>
                <mxCell id="419" value="" style="endArrow=open;dashed=1;html=1;rounded=1;fontSize=28;endFill=0;edgeStyle=orthogonalEdgeStyle;jumpStyle=arc;" edge="1" parent="1" source="417" target="407">
                    <mxGeometry width="50" height="50" relative="1" as="geometry">
                        <mxPoint x="1996" y="499" as="sourcePoint"/>
                        <mxPoint x="2070" y="499" as="targetPoint"/>
                        <Array as="points">
                            <mxPoint x="1719" y="461"/>
                            <mxPoint x="1873" y="461"/>
                        </Array>
                    </mxGeometry>
                </mxCell>
                <mxCell id="420" value="" style="endArrow=open;html=1;rounded=1;fontSize=28;endFill=0;edgeStyle=orthogonalEdgeStyle;jumpStyle=arc;" edge="1" parent="1" source="417" target="409">
                    <mxGeometry width="50" height="50" relative="1" as="geometry">
                        <mxPoint x="1659.25" y="615.5799999999999" as="sourcePoint"/>
                        <mxPoint x="1733.25" y="615.5799999999999" as="targetPoint"/>
                        <Array as="points">
                            <mxPoint x="1718" y="563"/>
                            <mxPoint x="1718" y="563"/>
                        </Array>
                    </mxGeometry>
                </mxCell>
                <mxCell id="421" value="n" style="text;html=1;align=center;verticalAlign=middle;resizable=0;points=[];autosize=1;strokeColor=none;fillColor=none;" vertex="1" parent="1">
                    <mxGeometry x="2012" y="586" width="17" height="18" as="geometry"/>
                </mxCell>
                <mxCell id="422" value="1" style="text;html=1;align=center;verticalAlign=middle;resizable=0;points=[];autosize=1;strokeColor=none;fillColor=none;" vertex="1" parent="1">
                    <mxGeometry x="2012" y="556" width="17" height="18" as="geometry"/>
                </mxCell>
                <mxCell id="423" value="n" style="text;html=1;align=center;verticalAlign=middle;resizable=0;points=[];autosize=1;strokeColor=none;fillColor=none;" vertex="1" parent="1">
                    <mxGeometry x="1723" y="689" width="17" height="18" as="geometry"/>
                </mxCell>
                <mxCell id="424" value="1" style="text;html=1;align=center;verticalAlign=middle;resizable=0;points=[];autosize=1;strokeColor=none;fillColor=none;" vertex="1" parent="1">
                    <mxGeometry x="1723" y="661" width="17" height="18" as="geometry"/>
                </mxCell>
                <mxCell id="425" value="1" style="text;html=1;align=center;verticalAlign=middle;resizable=0;points=[];autosize=1;strokeColor=none;fillColor=none;" vertex="1" parent="1">
                    <mxGeometry x="1723" y="581" width="17" height="18" as="geometry"/>
                </mxCell>
                <mxCell id="426" value="1" style="text;html=1;align=center;verticalAlign=middle;resizable=0;points=[];autosize=1;strokeColor=none;fillColor=none;" vertex="1" parent="1">
                    <mxGeometry x="1723" y="555" width="17" height="18" as="geometry"/>
                </mxCell>
                <mxCell id="427" value="1" style="text;html=1;align=center;verticalAlign=middle;resizable=0;points=[];autosize=1;strokeColor=none;fillColor=none;" vertex="1" parent="1">
                    <mxGeometry x="1696" y="475" width="17" height="18" as="geometry"/>
                </mxCell>
                <mxCell id="428" value="1" style="text;html=1;align=center;verticalAlign=middle;resizable=0;points=[];autosize=1;strokeColor=none;fillColor=none;" vertex="1" parent="1">
                    <mxGeometry x="1839" y="425" width="17" height="18" as="geometry"/>
                </mxCell>
                <mxCell id="429" value="RouteService" style="swimlane;fontStyle=1;align=center;verticalAlign=top;childLayout=stackLayout;horizontal=1;startSize=26;horizontalStack=0;resizeParent=1;resizeParentMax=0;resizeLast=0;collapsible=1;marginBottom=0;" vertex="1" parent="1">
                    <mxGeometry x="1921" y="495" width="160" height="52" as="geometry"/>
                </mxCell>
                <mxCell id="430" value=" " style="text;strokeColor=none;fillColor=none;align=left;verticalAlign=top;spacingLeft=4;spacingRight=4;overflow=hidden;rotatable=0;points=[[0,0.5],[1,0.5]];portConstraint=eastwest;" vertex="1" parent="429">
                    <mxGeometry y="26" width="160" height="26" as="geometry"/>
                </mxCell>
                <mxCell id="431" value="" style="endArrow=open;dashed=1;html=1;rounded=1;fontSize=28;endFill=0;edgeStyle=orthogonalEdgeStyle;jumpStyle=arc;" edge="1" parent="1" source="429" target="407">
                    <mxGeometry width="50" height="50" relative="1" as="geometry">
                        <mxPoint x="1729" y="507.0000000000002" as="sourcePoint"/>
                        <mxPoint x="1874" y="448" as="targetPoint"/>
                        <Array as="points">
                            <mxPoint x="2001" y="460"/>
                            <mxPoint x="1874" y="460"/>
                        </Array>
                    </mxGeometry>
                </mxCell>
                <mxCell id="432" value="Route" style="swimlane;fontStyle=1;align=center;verticalAlign=top;childLayout=stackLayout;horizontal=1;startSize=26;horizontalStack=0;resizeParent=1;resizeParentMax=0;resizeLast=0;collapsible=1;marginBottom=0;" vertex="1" parent="1">
                    <mxGeometry x="1921" y="611" width="160" height="52" as="geometry"/>
                </mxCell>
                <mxCell id="433" value=" " style="text;strokeColor=none;fillColor=none;align=left;verticalAlign=top;spacingLeft=4;spacingRight=4;overflow=hidden;rotatable=0;points=[[0,0.5],[1,0.5]];portConstraint=eastwest;" vertex="1" parent="432">
                    <mxGeometry y="26" width="160" height="26" as="geometry"/>
                </mxCell>
                <mxCell id="434" value="1" style="text;html=1;align=center;verticalAlign=middle;resizable=0;points=[];autosize=1;strokeColor=none;fillColor=none;" vertex="1" parent="1">
                    <mxGeometry x="1721" y="770" width="17" height="18" as="geometry"/>
                </mxCell>
                <mxCell id="435" value="" style="endArrow=open;html=1;rounded=1;fontSize=28;endFill=0;edgeStyle=orthogonalEdgeStyle;jumpStyle=arc;" edge="1" parent="1" source="411" target="414">
                    <mxGeometry width="50" height="50" relative="1" as="geometry">
                        <mxPoint x="1726" y="768" as="sourcePoint"/>
                        <mxPoint x="1726" y="826" as="targetPoint"/>
                        <Array as="points">
                            <mxPoint x="1717" y="782"/>
                            <mxPoint x="1717" y="782"/>
                        </Array>
                    </mxGeometry>
                </mxCell>
                <mxCell id="436" value="n" style="text;html=1;align=center;verticalAlign=middle;resizable=0;points=[];autosize=1;strokeColor=none;fillColor=none;" vertex="1" parent="1">
                    <mxGeometry x="1721" y="807" width="17" height="18" as="geometry"/>
                </mxCell>
                <mxCell id="437" value="&lt;font&gt;&lt;font style=&quot;font-size: 40px&quot;&gt;DOMAIN MODEL GETAROOM&lt;/font&gt;&lt;br&gt;&lt;/font&gt;" style="text;html=1;align=center;verticalAlign=middle;resizable=0;points=[];autosize=1;strokeColor=none;fillColor=none;fontSize=30;" vertex="1" parent="1">
                    <mxGeometry x="1639" y="288" width="563" height="44" as="geometry"/>
                </mxCell>
            </root>
        </mxGraphModel>
    </diagram>
</mxfile>